<?xml version="1.0" encoding="UTF-8"?>
<svg version="1.1" xmlns="http://www.w3.org/2000/svg" width="960" height="1356">
<path d="M0 0 C316.8 0 633.6 0 960 0 C960 7.30538416 959.95367461 14.2818723 959.28286934 21.50163174 C959.20525774 22.38399244 959.12764615 23.26635315 959.04768268 24.17545205 C958.78837046 27.10884876 958.52152624 30.0415087 958.25466919 32.97422791 C958.06399691 35.11320002 957.87379282 37.25221392 957.68401355 39.39126545 C957.16156903 45.26453116 956.63249968 51.13718401 956.10234667 57.00975823 C955.52862543 63.37805464 954.96108952 69.74690267 954.39278698 76.11568451 C953.40041091 87.22738882 952.40415239 98.33873943 951.4052372 109.44985771 C950.34241248 121.27210732 949.28192475 133.09456305 948.2243557 144.91728401 C948.15787365 145.66048424 948.09139161 146.40368447 948.02289495 147.16940592 C947.68440821 150.95347366 947.34596234 154.73754506 947.00753257 158.5216179 C944.57976825 185.6663207 942.14705686 212.81057819 939.71157837 239.95458984 C937.32511607 266.5525262 934.9406809 293.15064295 932.55917358 319.74902344 C932.48558858 320.57086658 932.41200357 321.39270972 932.33618871 322.2394572 C931.44316782 332.21333533 930.55024038 342.18722184 929.65735242 352.16111187 C928.31575155 367.14725413 926.97398376 382.13338143 925.63219529 397.11950689 C925.40866363 399.61609112 925.1851353 402.11267564 924.96160745 404.60926022 C922.87186753 427.94945062 920.78117681 451.2895557 918.68977251 474.62959702 C911.65344318 553.15508435 904.6310954 631.68178752 897.6362915 710.21098638 C897.01756962 717.15716091 896.3987102 724.10332319 895.77981567 731.04948235 C892.30882567 770.00633978 888.83850164 808.96325623 885.37301099 847.9206033 C883.94630301 863.9585789 882.51798871 879.9964108 881.08803135 896.03409702 C880.25815594 905.34225466 879.4296236 914.65052953 878.60311632 923.95898687 C878.06075856 930.06595679 877.51678232 936.17278106 876.97143723 942.27948494 C876.66302939 945.73356622 876.35535942 949.1877089 876.04973054 952.64203727 C875.7223053 956.338414 875.39207733 960.03452969 875.06111145 963.73059082 C874.96720979 964.79848707 874.87330813 965.86638332 874.77656096 966.96664006 C874.35125734 971.68475065 873.88040752 976.33961553 873 981 C859.95863965 984.62610227 846.91694412 988.25099795 833.875 991.875 C832.87590858 992.15262051 831.87681717 992.43024101 830.84745026 992.71627426 C798.86268282 1001.60360479 766.87150734 1010.46753533 734.875 1019.3125 C707.49595436 1026.88130581 680.11875051 1034.45654204 652.75 1042.0625 C652.04422192 1042.2586364 651.33844383 1042.4547728 650.61127853 1042.65685272 C643.36799971 1044.66981578 636.12485183 1046.6832497 628.88177395 1048.69693565 C620.2665452 1051.09208963 611.65121371 1053.48687364 603.03557014 1055.88053513 C598.11439206 1057.24778725 593.19338354 1058.61564331 588.2727356 1059.98480225 C578.44305279 1062.7190475 568.61054481 1065.44226051 558.77148438 1068.14257812 C555.01784165 1069.17437758 551.26461494 1070.20767612 547.51171875 1071.2421875 C546.60384487 1071.49233864 545.69597099 1071.74248978 544.76058578 1072.00022125 C533.73151906 1075.04587253 522.78707289 1078.25486498 511.89453125 1081.7578125 C508.77349289 1082.73252374 505.65103385 1083.70253347 502.52810669 1084.6711731 C499.9173772 1085.50879875 497.34682014 1086.42492363 494.76733398 1087.35327148 C481.21423861 1091.82238535 469.88991205 1088.19106276 456.65027237 1084.04968929 C451.13629641 1082.3261267 445.59303111 1080.74044152 440.02246094 1079.21020508 C438.71388815 1078.85069401 438.71388815 1078.85069401 437.37887955 1078.4839201 C435.56636717 1077.9864834 433.75377028 1077.48935456 431.94109344 1076.99251747 C427.17567799 1075.6818177 422.41615342 1074.3500828 417.65625 1073.01953125 C415.65886632 1072.4617078 413.66147031 1071.90392845 411.6640625 1071.34619141 C410.15017944 1070.92339905 410.15017944 1070.92339905 408.60571289 1070.49206543 C398.87355261 1067.77500174 389.1397877 1065.06368663 379.40625 1062.3515625 C378.3042627 1062.04445595 377.20227539 1061.7373494 376.06689453 1061.42093658 C353.68253661 1055.18322826 331.28724837 1048.98540254 308.88892365 1042.79806519 C271.57241292 1032.48937873 234.27020075 1022.13008447 196.97607422 1011.74072266 C195.98575762 1011.46484251 194.99544102 1011.18896236 193.97511482 1010.90472221 C192.98961081 1010.63018274 192.00410679 1010.35564327 190.98873901 1010.07278442 C190.00832516 1009.79966557 189.0279113 1009.52654671 188.01778793 1009.24515152 C186.05301404 1008.69780986 184.08824402 1008.15045428 182.12347794 1007.60308456 C168.08423737 1003.69200813 154.0430238 999.788095 140 995.890625 C138.27293888 995.4112453 136.54587793 994.93186502 134.81881714 994.45248413 C127.59863308 992.44850734 120.37830143 990.44506607 113.15748978 988.44335175 C110.30969266 987.65375034 107.4620614 986.86355211 104.61447144 986.07320404 C102.69032068 985.53939185 100.76594018 985.006408 98.84155273 984.47344971 C97.14325317 984.00198517 97.14325317 984.00198517 95.41064453 983.52099609 C94.43080597 983.24935638 93.45096741 982.97771667 92.44143677 982.69784546 C90.61454522 982.17565787 88.80255134 981.60085045 87 981 C85.06038132 966.85113462 83.81950302 952.64977129 82.5605011 938.42715454 C82.31967145 935.73046217 82.07861573 933.03379086 81.8372857 930.3371433 C81.31428004 924.48793706 80.79336529 918.63854761 80.2738533 912.78903008 C79.5001348 904.07735493 78.72312163 895.36597577 77.94546122 886.65465173 C76.63117065 871.93096629 75.31953358 857.20704558 74.00939369 842.48299026 C72.69777345 827.74241095 71.38493212 813.00194118 70.0705471 798.26160812 C69.94682988 796.87415463 69.94682988 796.87415463 69.82061331 795.45867177 C69.40111298 790.75416364 68.98159173 786.04965738 68.56206252 781.34515183 C65.58019527 747.90673622 62.60096836 714.46808583 59.62329102 681.02929688 C56.78829961 649.19292045 53.95222549 617.35664083 51.11450195 585.52050781 C50.94090504 583.57292335 50.76730815 581.62533889 50.59371127 579.67775443 C49.29722353 565.1325186 48.00066115 550.58728942 46.70409359 536.0420607 C45.41349986 521.56383266 44.12295235 507.0856005 42.83248901 492.60736084 C42.74769459 491.65602375 42.66290016 490.70468666 42.57553621 489.72452117 C40.10861342 462.04712268 37.64321503 434.36958878 35.17914574 406.69193611 C33.7613638 390.76675337 32.3433727 374.84158925 30.9253074 358.91643175 C30.67866855 356.14660909 30.43203668 353.37678581 30.18540516 350.6069625 C25.85033467 301.92226157 21.50267435 253.2387104 17.1368644 204.55675627 C16.1512951 193.56661111 15.16662214 182.57638595 14.18258572 171.58610344 C14.04635926 170.06471288 13.91013271 168.54332233 13.77390609 167.02193179 C13.23968121 161.05553281 12.70548086 155.08913163 12.17140674 149.12271915 C10.71609238 132.8648781 9.25836087 116.60726039 7.7944478 100.35019117 C6.80828623 89.39812619 5.82578889 78.44573668 4.84699558 67.49301043 C4.3262396 61.66730546 3.80373347 55.84177165 3.27641845 50.0166564 C2.79879818 44.7404806 2.32603935 39.46389283 1.85717156 34.18693225 C1.68814228 32.29439746 1.51732122 30.40202162 1.34448019 28.50983115 C1.10994833 25.9394962 0.88206001 23.36865131 0.65573406 20.79758263 C0.58828846 20.07608425 0.52084286 19.35458588 0.45135345 18.61122392 C-0.08840044 12.34326015 0 6.37195658 0 0 Z " fill="#264DE4" transform="translate(0,266)"/>
<path d="M0 0 C198.33 0 396.66 0 601 0 C601 13.49778081 601 13.49778081 600.46850586 19.0534668 C600.29173309 20.94745209 600.29173309 20.94745209 600.11138916 22.87969971 C599.97924426 24.23620965 599.84706121 25.59271588 599.71484375 26.94921875 C599.57681228 28.41073417 599.43935786 29.87230419 599.3024292 31.33392334 C599.00785019 34.46938836 598.71016733 37.60453616 598.41000366 40.73947144 C597.67245833 48.44845509 596.95325702 56.15916092 596.2340641 63.86987495 C596.06683515 65.66279231 595.89943321 67.45569353 595.73186302 69.24857903 C594.02798868 87.49031007 592.44899882 105.74167025 590.89534378 123.99670792 C588.06984864 157.17761982 585.06332906 190.34024984 582 223.5 C579.03298986 255.6175113 576.11609573 287.73737877 573.375 319.875 C570.94678466 348.34429568 568.38505379 376.79900837 565.74485397 405.24941635 C563.21143269 432.55416069 560.77342394 459.86515795 558.4375 487.1875 C556.09057758 514.63360062 553.65650712 542.07027931 551.125 569.5 C550.97198953 571.16026764 550.81898449 572.82053578 550.66598511 574.48080444 C550.30650257 578.37923679 549.94580744 582.27755502 549.58399391 586.17577171 C549.452155 587.59649887 549.32052383 589.01724532 549.18912315 590.43801308 C548.52295594 597.63351608 547.8283924 604.82125121 547 612 C540.22779567 614.0794982 533.41702007 616.00060523 526.58691406 617.87939453 C519.99486127 619.7024714 513.43510074 621.62805848 506.875 623.5625 C498.94675586 625.89656217 491.01765633 628.03100215 482.984375 629.97265625 C478.27380046 631.15029989 473.64218898 632.58026314 469 634 C462.34781962 636.03362692 455.69262971 637.89413091 448.93310547 639.53344727 C441.66778336 641.3019916 434.47926673 643.33308732 427.28222656 645.35888672 C423.52390951 646.414657 419.76179211 647.45669367 416 648.5 C414.49998134 648.91659949 412.99998135 649.33326619 411.5 649.75 C366.5 662.25 366.5 662.25 364.25146484 662.87451172 C362.74652608 663.29260466 361.24164354 663.7109 359.73681641 664.12939453 C356.06280567 665.15087905 352.38799244 666.16921195 348.7109375 667.1796875 C337.87605109 670.16317143 327.08501044 673.28773588 316.30078125 676.44921875 C315.38337158 676.71645752 314.46596191 676.98369629 313.52075195 677.2590332 C311.97458821 677.71352298 310.4307923 678.1762916 308.89135742 678.65307617 C298.5833692 681.79734971 288.34763189 677.59902427 278.37890625 674.68945312 C274.59518463 673.59285729 270.79735997 672.54817767 267 671.5 C265.49992534 671.08360221 263.99992543 670.66693504 262.5 670.25 C261.7575 670.04375 261.015 669.8375 260.25 669.625 C234 662.33333333 207.75 655.04166667 181.5 647.75 C180.75741943 647.54375 180.01483887 647.3375 179.24975586 647.125 C177.75052301 646.70850124 176.25133675 646.2918347 174.75219727 645.875 C170.99082511 644.8293802 167.22867541 643.78673435 163.46484375 642.75 C156.22640992 640.75289464 149.0061263 638.7157001 141.8125 636.5625 C134.00158998 634.2282157 126.12241122 632.19033827 118.2277832 630.16040039 C112.27041479 628.61957332 106.39832623 626.92410402 100.53515625 625.0546875 C94.82707312 623.35172347 89.05078041 621.90560257 83.2734375 620.45703125 C73.42512414 617.94942372 63.72005482 614.95875928 54 612 C52.9742645 601.02128713 51.95406132 590.04206585 50.9375 579.0625 C50.8600568 578.2262207 50.7826136 577.38994141 50.70282364 576.52832031 C47.85643752 545.77471091 45.14750871 515.01036445 42.52556324 484.23684025 C42.24521201 480.94747002 41.96418493 477.65815784 41.68289375 474.36886787 C41.54892757 472.80113575 41.41522984 471.23338067 41.28181267 469.66560173 C40.47482919 460.19309507 39.65196564 450.72291723 38.54862976 441.27929688 C37.86872651 435.08556276 38 429.37039901 38 423 C77.6 423 117.2 423 158 423 C159.32377126 433.59017004 160.55260531 444.13933589 161.5078125 454.76171875 C161.63940523 456.20987069 161.77106989 457.65801609 161.90280151 459.1061554 C162.17529785 462.11006489 162.44553571 465.11416758 162.71435547 468.1184082 C163.05588007 471.93087549 163.40532147 475.74257251 163.75671577 479.55414104 C164.03011189 482.53354085 164.29815551 485.51340548 164.564785 488.49341774 C164.69127623 489.89792633 164.81959945 491.30227141 164.94995499 492.70642662 C165.76350076 501.49781327 166.16737693 510.17083788 166 519 C166.75120117 519.16854492 167.50240234 519.33708984 168.27636719 519.51074219 C183.55178558 522.95578994 198.79696391 526.63196642 213.78393555 531.1796875 C219.00567705 532.74927164 224.26466715 534.08799701 229.5625 535.375 C237.02488325 537.19131045 244.389432 539.24585345 251.75 541.4375 C261.04474756 544.20326517 270.38154587 546.68069453 279.80761719 548.95874023 C281.19835449 549.29627319 281.19835449 549.29627319 282.6171875 549.640625 C283.51663086 549.85783203 284.41607422 550.07503906 285.34277344 550.29882812 C288.00654768 551.00172776 290.58474398 551.85655516 293.1953125 552.734375 C297.85031716 554.14873964 301.29921077 554.08891556 306 553 C306.73331543 552.84080078 307.46663086 552.68160156 308.22216797 552.51757812 C310.63822669 551.96620171 313.03715969 551.36609991 315.4375 550.75 C316.31148438 550.52892578 317.18546875 550.30785156 318.0859375 550.08007812 C324.29178179 548.49033717 330.43286712 546.72952001 336.56420898 544.87597656 C342.8457152 542.99643613 349.19042905 541.43058222 355.55859375 539.875 C360.91894656 538.55349546 366.21592998 537.09820643 371.5 535.5 C377.62652143 533.64698785 383.78234734 532.01894732 390 530.5 C397.02291147 528.78313875 403.96237747 526.89116699 410.88720703 524.81567383 C415.69988108 523.37508695 420.52486292 521.99673583 425.375 520.6875 C426.57898438 520.36136719 427.78296875 520.03523437 429.0234375 519.69921875 C432 519 432 519 435 519 C434.98722015 518.2101622 434.97444031 517.4203244 434.96127319 516.60655212 C434.88948198 508.72686596 435.30995072 501.02744988 436.1015625 493.19140625 C436.27705879 491.37153198 436.27705879 491.37153198 436.45610046 489.51489258 C436.70891635 486.89613299 436.96375205 484.27766673 437.22207642 481.65945435 C437.92026551 474.5765682 438.59446399 467.49137051 439.26953125 460.40625 C439.3400363 459.66815157 439.41054134 458.93005314 439.48318291 458.16958809 C441.43747558 437.68453531 443.16422336 417.17995447 444.89372921 396.67492867 C445.1381465 393.77855887 445.38324404 390.88224675 445.62830544 387.9859314 C445.79500169 386.00991709 445.96011324 384.0337693 446.12516785 382.05761719 C446.27650932 380.26287964 446.27650932 380.26287964 446.4309082 378.43188477 C446.51717972 377.4013649 446.60345123 376.37084503 446.69233704 375.30909729 C447.07431526 371.20069543 447.54434618 367.10088439 448 363 C310.72 363 173.44 363 32 363 C22 259.66666667 22 259.66666667 22 243 C166.21 243 310.42 243 459 243 C459.33 236.4 459.66 229.8 460 223 C460.48332198 217.09474044 460.99419238 211.19800068 461.55859375 205.30078125 C461.70973754 203.68535747 461.86044762 202.06989307 462.01075745 200.45439148 C462.40252315 196.25364808 462.79905319 192.05337025 463.19702148 187.85321045 C463.82953377 181.17057372 464.45548104 174.48731868 465.08021927 167.80395126 C465.23186772 166.18326307 465.38388049 164.56260892 465.53626633 162.9419899 C466.59522292 151.67352646 467.57723641 140.40387161 468.38243103 129.11384583 C468.45095779 128.19093246 468.51948456 127.2680191 468.59008789 126.31713867 C468.64596573 125.52409836 468.70184357 124.73105804 468.75941467 123.91398621 C469 122 469 122 470 120 C318.2 120 166.4 120 10 120 C0 9 0 9 0 0 Z " fill="#FEFEFE" transform="translate(179,467)"/>
<path d="M0 0 C129.36 0 258.72 0 392 0 C390.85138078 21.82376512 390.85138078 21.82376512 390.203125 28.80117798 C390.1294722 29.62621146 390.0558194 30.45124493 389.97993469 31.30127943 C389.73992745 33.98062207 389.49500926 36.65948946 389.25 39.33837891 C389.07382751 41.29384113 388.89797461 43.24933216 388.72241211 45.20484924 C388.34740355 49.37463276 387.97023372 53.54421272 387.59130859 57.71364212 C386.99071331 64.32286749 386.39540468 70.93256293 385.80078125 77.54232788 C384.64513983 90.38046617 383.4843313 103.21813458 382.32287598 116.05574799 C380.84411938 132.40275222 379.36750105 148.7499479 377.89601135 165.09760797 C377.30584697 171.65213335 376.71303169 178.20641167 376.11805725 184.7605021 C375.74707213 188.85287141 375.37828384 192.94543669 375.01004028 197.03805351 C374.84046196 198.91770543 374.66999262 200.79727725 374.49850464 202.67675591 C373.56740511 212.88686203 372.76083257 223.08404005 372.22398376 233.32303429 C371.87750858 239.01084555 371.22480172 244.65435887 370.5625 250.3125 C369.48825003 259.86657826 368.63003779 269.4065796 368 279 C367.30625765 289.53855689 366.28838523 300.00600827 365.10546875 310.5 C364.07642399 319.81337478 363.38569466 329.12712848 362.77172852 338.47583008 C362.11773952 348.09938951 361.11409988 357.6649767 360.03735352 367.24926758 C359.20113512 374.79344676 358.62135661 382.29402037 358.26342773 389.8737793 C358.03868143 393.86197557 357.57399753 397.80879552 357.06640625 401.76953125 C355.89438285 411.32464524 355.18372257 420.89963097 354.5 430.5 C353.78238128 440.5763158 352.98071216 450.60602267 351.73692322 460.63212585 C350.81881833 468.18557274 350.27817686 475.7601691 349.73849487 483.34848022 C348.76672564 496.95375498 347.59431047 510.50210497 346.05493164 524.0559082 C345.03639949 533.19189385 344.37339117 542.33117128 343.76928711 551.50268555 C343.13186166 560.86793632 342.15679366 570.17339482 341.10546875 579.5 C340.20407032 587.65811107 339.53926689 595.81045542 339 604 C338.30712396 614.52232082 337.29412795 624.97410451 336.10986328 635.45166016 C335.02339848 645.26582818 334.27782365 655.08819666 333.64648438 664.94140625 C333.57494141 666.04097656 333.50339844 667.14054688 333.4296875 668.2734375 C333.34050049 669.71855713 333.34050049 669.71855713 333.24951172 671.19287109 C332.98533631 674.16497373 332.50295916 677.05991339 332 680 C331.82762694 682.39407023 331.68422206 684.79032073 331.5625 687.1875 C331.24274228 692.87592465 330.76465945 698.5253293 330.125 704.1875 C329.03334995 713.94090463 328.27338244 723.71744763 327.5 733.5 C326.7066061 743.52301321 325.90747963 753.53263643 324.76953125 763.5234375 C323.81807589 772.16452387 323.18629593 780.83474395 322.5 789.5 C321.61219428 800.70705929 320.69075154 811.89772755 319.4296875 823.0703125 C318.88614881 828.04122085 318.43973634 833.01898657 318 838 C313.87607775 839.19126199 309.75063869 840.37719745 305.625 841.5625 C304.50738281 841.88541016 303.38976562 842.20832031 302.23828125 842.54101562 C294.11572419 844.87125741 285.96748154 847.09225808 277.8046875 849.27734375 C263.66884588 853.06425124 249.58332229 857.02295047 235.5 861 C220.50196087 865.23536033 205.49711819 869.43223125 190.44308472 873.46461487 C179.48809205 876.3993671 168.55479097 879.41043099 157.625 882.4375 C156.61361969 882.7172467 155.60223938 882.99699341 154.56021118 883.28521729 C141.47269567 886.90598049 128.40232619 890.57799505 115.35327148 894.33496094 C107.29382202 896.64863183 99.20790926 898.84755718 91.10668945 901.00976562 C79.67867531 904.06826376 68.27673152 907.22016235 56.875 910.375 C55.35436447 910.79564728 55.35436447 910.79564728 53.80300903 911.22479248 C39.21609098 915.2615794 24.63815588 919.32938345 10.07763672 923.46044922 C8.87896973 923.79963379 7.68030273 924.13881836 6.4453125 924.48828125 C5.40906738 924.78259033 4.37282227 925.07689941 3.30517578 925.38012695 C1 926 1 926 0 926 C-0.495 864.125 -0.495 864.125 -1 801 C12.45221657 797.07643683 25.85581879 793.18298286 39.375 789.53125 C45.40811155 787.89745957 51.42215398 786.19780138 57.4375 784.5 C65.68493341 782.17455498 73.95163709 779.94889429 82.25 777.8125 C88.99550533 776.07406029 95.6722784 774.23929583 102.3125 772.12890625 C115.42864927 768.11347496 128.70551654 764.58097875 141.96875 761.0859375 C147.32849807 759.65685706 152.66150163 758.13105168 158 756.625 C166.3933361 754.25779513 174.8043217 751.98542062 183.25 749.8125 C190.06287369 748.0579704 196.80242648 746.19684038 203.5078125 744.0625 C209.24004713 742.31846441 215.02946942 740.78439324 220.81396484 739.22412109 C227.37468504 737.45276064 233.9041549 735.60166614 240.41796875 733.6640625 C243 733 243 733 246 733 C245.96898193 731.86691406 245.93796387 730.73382812 245.90600586 729.56640625 C245.91252873 721.99472886 246.7846082 714.46731465 247.50390625 706.9375 C247.66436312 705.22355074 247.82438089 703.50956032 247.98399353 701.79553223 C248.32658687 698.12284661 248.67143107 694.45038249 249.01806641 690.77807617 C249.95142712 680.88432648 250.86835318 670.98904543 251.78515625 661.09375 C251.87902744 660.08174026 251.97289864 659.06973053 252.06961441 658.02705383 C253.89355926 638.34771963 255.61078131 618.66016321 257.28956223 598.96798706 C259.82588584 569.22231107 262.49454919 539.4910979 265.25384903 509.76529694 C267.83294907 481.97680739 270.30959079 454.18142374 272.6875 426.375 C274.62515513 403.71675069 276.61378014 381.06734202 278.7958374 358.43103027 C280.8587383 336.98414225 282.69672805 315.51952725 284.53250504 294.05230331 C287.19403803 262.93952216 289.99621414 231.84120742 292.89100075 200.74927139 C295.36318057 174.17376425 297.68773621 147.59103361 300 121 C101.67 121 -96.66 121 -301 121 C-301 120.67 -301 120.34 -301 120 C-201.67 120 -102.34 120 0 120 C0 80.4 0 40.8 0 0 Z " fill="#2965F0" transform="translate(480,346)"/>
<path d="M0 0 C39.6 0 79.2 0 120 0 C121.32377126 10.59017004 122.55260531 21.13933589 123.5078125 31.76171875 C123.63940523 33.20987069 123.77106989 34.65801609 123.90280151 36.1061554 C124.17529785 39.11006489 124.44553571 42.11416758 124.71435547 45.1184082 C125.05588007 48.93087549 125.40532147 52.74257251 125.75671577 56.55414104 C126.03011189 59.53354085 126.29815551 62.51340548 126.564785 65.49341774 C126.69127623 66.89792633 126.81959945 68.30227141 126.94995499 69.70642662 C127.76350076 78.49781327 128.16737693 87.17083788 128 96 C128.75120117 96.16854492 129.50240234 96.33708984 130.27636719 96.51074219 C145.55178558 99.95578994 160.79696391 103.63196642 175.78393555 108.1796875 C181.00567705 109.74927164 186.26466715 111.08799701 191.5625 112.375 C199.02487976 114.1913096 206.38945157 116.24579562 213.75 118.4375 C222.95648884 121.1777213 232.20178314 123.63591697 241.54394531 125.87084961 C248.83328583 127.63301632 255.78784981 129.78087686 263 132 C263 172.92 263 213.84 263 256 C263.99 256.33 264.98 256.66 266 257 C257.04506634 256.56669676 248.93046917 254.1853971 240.37890625 251.68945312 C236.59518463 250.59285729 232.79735997 249.54817767 229 248.5 C227.49992534 248.08360221 225.99992543 247.66693504 224.5 247.25 C223.7575 247.04375 223.015 246.8375 222.25 246.625 C182.875 235.6875 182.875 235.6875 143.5 224.75 C142.75741943 224.54375 142.01483887 224.3375 141.24975586 224.125 C139.75052301 223.70850124 138.25133675 223.2918347 136.75219727 222.875 C132.99082511 221.8293802 129.22867541 220.78673435 125.46484375 219.75 C118.22640992 217.75289464 111.0061263 215.7157001 103.8125 213.5625 C96.00158998 211.2282157 88.12241122 209.19033827 80.2277832 207.16040039 C74.27041479 205.61957332 68.39832623 203.92410402 62.53515625 202.0546875 C56.82707312 200.35172347 51.05078041 198.90560257 45.2734375 197.45703125 C35.42512414 194.94942372 25.72005482 191.95875928 16 189 C14.9742645 178.02128713 13.95406132 167.04206585 12.9375 156.0625 C12.8600568 155.2262207 12.7826136 154.38994141 12.70282364 153.52832031 C9.85643752 122.77471091 7.14750871 92.01036445 4.52556324 61.23684025 C4.24521201 57.94747002 3.96418493 54.65815784 3.68289375 51.36886787 C3.54892757 49.80113575 3.41522984 48.23338067 3.28181267 46.66560173 C2.47482919 37.19309507 1.65196564 27.72291723 0.54862976 18.27929688 C-0.13127349 12.08556276 0 6.37039901 0 0 Z " fill="#EAEAEB" transform="translate(217,890)"/>
<path d="M0 0 C99.33 0 198.66 0 301 0 C301 39.27 301 78.54 301 119 C356.77 119 412.54 119 470 119 C470 119.33 470 119.66 470 120 C318.2 120 166.4 120 10 120 C0 9 0 9 0 0 Z " fill="#EAEAEB" transform="translate(179,467)"/>
<path d="M0 0 C92.07 0 184.14 0 279 0 C279 39.6 279 79.2 279 120 C190.23 120 101.46 120 10 120 C0 16.66666667 0 16.66666667 0 0 Z " fill="#EAEAEB" transform="translate(201,710)"/>
<path d="M0 0 C48.51 0 97.02 0 147 0 C147 17.49 147 34.98 147 53 C118.95 53 90.9 53 62 53 C62 56.3 62 59.6 62 63 C90.05 63 118.1 63 147 63 C147 103.59 147 144.18 147 186 C98.49 186 49.98 186 0 186 C0 167.19 0 148.38 0 129 C28.05 129 56.1 129 85 129 C85 126.03 85 123.06 85 120 C56.95 120 28.9 120 0 120 C0 80.4 0 40.8 0 0 Z " fill="#000000" transform="translate(400,0)"/>
<path d="M0 0 C48.18 0 96.36 0 146 0 C146 17.49 146 34.98 146 53 C118.28 53 90.56 53 62 53 C62 56.3 62 59.6 62 63 C89.72 63 117.44 63 146 63 C146 103.59 146 144.18 146 186 C97.82 186 49.64 186 0 186 C0 167.19 0 148.38 0 129 C27.72 129 55.44 129 84 129 C84 126.03 84 123.06 84 120 C56.28 120 28.56 120 0 120 C0 80.4 0 40.8 0 0 Z " fill="#000000" transform="translate(575,0)"/>
<path d="M0 0 C48.51 0 97.02 0 147 0 C145.85135469 26.4188422 145.85135469 26.4188422 144.80078125 37.58203125 C144.68515335 38.85920013 144.56952545 40.13636902 144.45039368 41.45223999 C144.14108351 44.86783843 143.82532489 48.28280983 143.50818634 51.69768906 C143.17445621 55.30435946 142.84707677 58.91160668 142.51904297 62.51879883 C141.96811535 68.56913554 141.41369771 74.61914305 140.85693359 80.66894531 C139.98649534 90.13013829 139.12708928 99.59231957 138.26953125 109.0546875 C137.99116276 112.12524715 137.71275256 115.19580302 137.43432617 118.26635742 C137.3668987 119.01002784 137.29947123 119.75369825 137.2300005 120.51990414 C136.15740306 132.34697283 135.07865888 144.17348284 134 156 C131.93891576 156.64081862 129.87728545 157.27988105 127.81542969 157.91821289 C126.66741882 158.27428116 125.51940796 158.63034943 124.33660889 158.99720764 C120.00709455 160.29841016 115.64633421 161.39023428 111.25 162.4375 C104.94824944 163.97358151 98.70812133 165.62091629 92.5 167.5 C85.53193766 169.60771531 78.51242136 171.39772913 71.44140625 173.125 C66.08105344 174.44650454 60.78407002 175.90179357 55.5 177.5 C48.53926177 179.60532725 41.52776954 181.39616552 34.46337891 183.1184082 C28.21643501 184.65621997 22.0485791 186.38739699 15.90625 188.30078125 C10.59372947 189.92706304 5.54011877 190.89197625 0 192 C0 128.64 0 65.28 0 0 Z " fill="#2965F1" transform="translate(480,830)"/>
<path d="M0 0 C48.51 0 97.02 0 147 0 C147 20.13 147 40.26 147 61 C118.95 61 90.9 61 62 61 C62 80.8 62 100.6 62 121 C90.05 121 118.1 121 147 121 C147 141.46 147 161.92 147 183 C98.49 183 49.98 183 0 183 C0 122.61 0 62.22 0 0 Z " fill="#000000" transform="translate(225,0)"/>
<path d="M0 0 C55.77 0 111.54 0 169 0 C167.16752938 23.21129455 165.30203737 46.39658081 163.12921143 69.57501221 C162.86966988 72.3503137 162.6126735 75.12584849 162.35573483 77.90139198 C162.0389228 81.32237384 161.7207005 84.74322411 161.40234375 88.1640625 C161.29083481 89.36342438 161.17932587 90.56278625 161.06443787 91.79849243 C160.0895248 102.20424173 159.04001609 112.59983909 158 123 C13.79 123 -130.42 123 -279 123 C-279 125.64 -279 128.28 -279 131 C-279.33 131 -279.66 131 -280 131 C-280 128.03 -280 125.06 -280 122 C-187.6 122 -95.2 122 0 122 C0 81.74 0 41.48 0 0 Z " fill="#2965F0" transform="translate(480,587)"/>
</svg>
