<?xml version="1.0" encoding="UTF-8"?>
<svg version="1.1" xmlns="http://www.w3.org/2000/svg" width="1920" height="2880">
<path d="M0 0 C1.74871801 -0.00165264 3.49743566 -0.00374028 5.2461527 -0.0062201 C10.04114244 -0.0117579 14.83611423 -0.01111966 19.63110614 -0.00944251 C24.85201075 -0.0087089 30.0729104 -0.01374024 35.29381287 -0.01801753 C45.64441396 -0.02558432 55.99500988 -0.02778992 66.34561345 -0.02834659 C78.7460087 -0.02926155 91.1463992 -0.03593307 103.5467924 -0.04269341 C132.8068748 -0.05836224 162.06695551 -0.06444069 191.32704118 -0.06910044 C206.22308844 -0.07148596 221.11913526 -0.07518993 236.01518218 -0.07913754 C283.83053995 -0.09180165 331.6458977 -0.10258461 379.46125711 -0.10597799 C381.74565121 -0.10614023 384.0300453 -0.10630579 386.31443939 -0.10647238 C390.89560384 -0.10680617 395.47676829 -0.10713665 400.05793273 -0.10746694 C405.42102806 -0.10785383 410.78412338 -0.10824344 416.1472187 -0.108638 C417.68216326 -0.10875042 419.21710783 -0.10886184 420.75205239 -0.10897225 C470.01937556 -0.11251952 519.28668412 -0.12758925 568.55400171 -0.15091 C603.96488587 -0.167665 639.37576726 -0.18313234 674.78665543 -0.18764496 C675.88038351 -0.18778519 675.88038351 -0.18778519 676.9962071 -0.18792825 C693.0077129 -0.18994788 709.01921865 -0.19110344 725.03072457 -0.19145683 C730.7609863 -0.19159299 736.49124803 -0.19180198 742.22150976 -0.19205009 C743.64694858 -0.19211165 745.0723874 -0.19216997 746.49782622 -0.19222504 C769.15812055 -0.1931427 791.81839958 -0.20308495 814.47868887 -0.21768252 C837.96135729 -0.23274923 861.4439995 -0.23686206 884.92667364 -0.22858956 C898.44647236 -0.22414652 911.96620845 -0.22794067 925.48599889 -0.24382807 C934.53702276 -0.25362704 943.58800307 -0.25235322 952.63902661 -0.24239184 C957.78293856 -0.23703503 962.92673085 -0.23617436 968.07063256 -0.24890056 C997.00746284 -0.31600653 1025.33271811 0.92146875 1053.90101814 5.94392776 C1054.64363899 6.07115219 1055.38625984 6.19837662 1056.15138435 6.32945633 C1078.02228558 10.08289455 1099.32672424 15.59727311 1120.52601814 22.13142776 C1121.39081795 22.39504105 1122.25561775 22.65865433 1123.14662361 22.93025589 C1170.19766462 37.41308356 1216.65794839 60.85642221 1255.74427986 90.77791214 C1257.64768317 92.22385184 1259.57062102 93.64042079 1261.49867439 95.05330276 C1270.52952694 101.694207 1279.13779844 108.69714156 1287.52601814 116.13142776 C1288.40773689 116.91259964 1289.28945564 117.69377151 1290.19789314 118.49861526 C1292.65328123 120.69595301 1295.09069341 122.9118913 1297.52601814 125.13142776 C1298.87179939 126.33799026 1298.87179939 126.33799026 1300.24476814 127.56892776 C1306.26164792 133.00352885 1312.09422127 138.59656584 1317.83851814 144.31892776 C1318.82489265 145.29841385 1318.82489265 145.29841385 1319.83119392 146.29768753 C1324.26550849 150.74600284 1328.4268785 155.37479404 1332.52601814 160.13142776 C1333.5478191 161.2878238 1334.57120629 162.44282058 1335.59633064 163.59627151 C1343.13149417 172.13530934 1350.18524056 180.95603581 1356.99574471 190.08211136 C1358.43300466 192.00686568 1359.88094834 193.92311252 1361.33070564 195.83845901 C1414.3394184 266.39251099 1443.67997253 350.86001803 1452.52601814 438.13142776 C1452.63204353 439.17049271 1452.73806892 440.20955765 1452.84730721 441.28010941 C1462.0449894 547.81992821 1433.40880013 656.58613022 1354.52601814 773.13142776 C1353.57006943 774.37605084 1352.61434063 775.62084285 1351.65883064 776.86580276 C1346.84437038 783.1018328 1341.88861255 789.12031892 1336.55336189 794.92439651 C1334.775604 796.85972062 1333.05025563 798.82545793 1331.33851814 800.81892776 C1321.13050854 812.5260157 1310.47767935 824.14329548 1298.67836189 834.26033401 C1296.14549652 836.46222605 1293.68269292 838.73338602 1291.21351814 841.00642776 C1225.1278737 901.12537928 1139.508477 940.13071875 1007.52601814 960.13142776 C1008.9480555 960.26605423 1008.9480555 960.26605423 1010.39882088 960.40340042 C1065.87664086 965.72626818 1119.65392973 977.8187756 1170.52601814 1001.13142776 C1171.57289803 1001.61079788 1172.61977791 1002.090168 1173.69838142 1002.58406448 C1217.68111767 1022.89769918 1258.19376343 1049.19644501 1294.01429939 1081.86580276 C1295.38698765 1083.10399746 1296.76604608 1084.33574848 1298.17372322 1085.53401566 C1304.06136087 1090.56742526 1309.53664073 1095.98973901 1314.99891853 1101.47395706 C1316.58561761 1103.06601743 1318.17759556 1104.65265767 1319.77015877 1106.23884964 C1325.23200269 1111.69680548 1330.5404932 1117.22987007 1335.52601814 1123.13142776 C1336.40286417 1124.14120118 1337.28042436 1125.15035507 1338.15883064 1126.15877151 C1345.63426725 1134.88792555 1352.65611906 1143.91974704 1359.52601814 1153.13142776 C1360.07048592 1153.86023148 1360.61495369 1154.58903519 1361.17592049 1155.33992386 C1409.98687256 1220.97723682 1439.44430603 1298.354768 1450.52601814 1379.13142776 C1450.61903206 1379.80226395 1450.71204597 1380.47310013 1450.80787849 1381.16426468 C1463.67131481 1475.21080163 1444.66516904 1573.05665337 1357.99086189 1728.51033401 C1350.64486604 1738.16851217 1343.05170621 1747.59087626 1334.86195564 1756.54939651 C1332.96283741 1758.64858907 1331.09738977 1760.76832442 1329.24086189 1762.90486526 C1320.68160114 1772.70537929 1311.84763776 1782.43014447 1302.01039314 1790.96345901 C1299.54605636 1793.11394159 1297.15550077 1795.32645234 1294.76820564 1797.56135941 C1288.5613461 1803.36314919 1282.18709785 1808.851717 1275.52601814 1814.13142776 C1274.31489667 1815.11948355 1273.10397271 1816.10778147 1271.89320564 1817.09627151 C1262.39668508 1824.75272685 1252.48214506 1831.68419194 1242.33851814 1838.44392776 C1241.40463768 1839.06782898 1241.40463768 1839.06782898 1240.45189095 1839.70433426 C1161.47943973 1892.34006156 1069.10199985 1920.42643084 974.27601814 1920.31892776 C973.20888588 1920.31799118 972.14175362 1920.3170546 971.04228401 1920.31608963 C899.93966572 1920.1809376 830.9601624 1904.04759712 766.52601814 1874.13142776 C765.50330818 1873.65737503 764.48059822 1873.1833223 763.42689705 1872.69490433 C720.90031459 1852.74668045 682.09166356 1824.77750133 647.52601814 1793.13142776 C647.02602303 1792.67654984 646.52602791 1792.22167191 646.01088142 1791.7530098 C636.37250188 1782.9820551 626.78386837 1774.13440404 618.31898689 1764.20174026 C616.1945499 1761.74868666 613.98413178 1759.38439629 611.77601814 1757.00642776 C606.52710281 1751.24291289 601.72526418 1745.1966698 596.98109627 1739.01472855 C595.52736624 1737.1331726 594.05255211 1735.26998082 592.57289314 1733.40877151 C572.47601255 1707.91754922 556.13551696 1680.05523348 541.52601814 1651.13142776 C540.87052986 1649.83664505 540.87052986 1649.83664505 540.20179939 1648.51570511 C519.79578106 1607.86848629 506.61702769 1563.96344708 499.15101814 1519.19392776 C499.02932259 1518.46541611 498.90762703 1517.73690445 498.78224373 1516.98631668 C497.44464065 1508.88006014 496.33209155 1500.76950918 495.44935799 1492.60188675 C495.35950127 1491.78159737 495.26964455 1490.96130798 495.1770649 1490.11616135 C494.95874018 1488.121393 494.74219007 1486.12643055 494.52601814 1484.13142776 C494.52561796 1484.94768232 494.52521778 1485.76393687 494.52480547 1486.60492641 C494.48110887 1575.5174928 494.4337058 1664.43005692 494.36703682 1753.34260941 C494.36603119 1754.6852295 494.36502557 1756.02784958 494.36401995 1757.37046967 C494.34289488 1785.55721058 494.32115726 1813.74395098 494.29871277 1841.93069086 C494.28743751 1856.09145156 494.27627986 1870.25221235 494.26523346 1884.41297322 C494.26356654 1886.54896749 494.26189627 1888.68496175 494.26022586 1890.82095601 C494.23455704 1923.68213511 494.21139856 1956.5433136 494.19557381 1989.40449905 C494.19523394 1990.11014807 494.19489408 1990.81579709 494.19454392 1991.54282941 C494.18908025 2002.9187709 494.18382877 2014.29471248 494.17860548 2025.67065408 C494.16354332 2058.46783945 494.14689215 2091.26502061 494.11989498 2124.06219864 C494.11933965 2124.73775875 494.11878432 2125.41331886 494.11821217 2126.10935049 C494.10653742 2140.27906734 494.09419699 2154.44878352 494.08102701 2168.61849905 C494.07486522 2175.25605845 494.06881467 2181.89361795 494.06283188 2188.53117752 C494.061651 2189.83748034 494.06047012 2191.14378316 494.05925345 2192.48967091 C494.04056832 2213.47526408 494.03212369 2234.46084934 494.0275569 2255.44644982 C494.02273987 2276.56965064 494.00701931 2297.69282146 493.98035248 2318.81600618 C493.9648566 2331.34904864 493.95753714 2343.88203183 493.96224885 2356.41508332 C493.96457738 2364.81011472 493.9559124 2373.20509053 493.93869403 2381.60010442 C493.92921677 2386.36874282 493.9241512 2391.13725838 493.93262251 2395.90590155 C493.97808774 2424.12563237 492.76342158 2452.01413213 487.90101814 2479.88142776 C487.77696602 2480.60781448 487.65291389 2481.3342012 487.52510262 2482.08259964 C479.25572379 2530.1094469 463.23942605 2575.57845749 441.52601814 2619.13142776 C441.10352791 2619.98043655 440.68103767 2620.82944534 440.24574471 2621.70418167 C423.07458101 2655.92889836 400.7076497 2688.27757409 374.86195564 2716.54939651 C372.96283741 2718.64858907 371.09738977 2720.76832442 369.24086189 2722.90486526 C360.6791422 2732.70819482 351.84380797 2742.44101387 341.99867439 2750.97127151 C340.13405001 2752.60024036 338.3208868 2754.24877072 336.52211189 2755.94783401 C329.96313302 2762.13903836 323.22117127 2767.89582343 316.06508064 2773.38533401 C313.78535774 2775.13634467 311.55581317 2776.9264329 309.36195564 2778.78377151 C233.38070748 2842.63031054 128.57937318 2877.4583384 14.21351814 2880.31892776 C13.39519508 2880.31832352 12.57687202 2880.31771927 11.7337513 2880.31709671 C-63.9851077 2880.1669753 -136.82757487 2861.85979463 -204.47398186 2828.13142776 C-205.38776604 2827.67654984 -206.30155022 2827.22167191 -207.24302483 2826.7530098 C-240.2023008 2810.22203337 -270.65173448 2789.29080224 -298.47398186 2765.13142776 C-299.20874748 2764.49720901 -299.94351311 2763.86299026 -300.70054436 2763.20955276 C-302.63585094 2761.52868888 -304.55526077 2759.8311916 -306.47398186 2758.13142776 C-307.16137444 2757.52814651 -307.84876701 2756.92486526 -308.55698967 2756.30330276 C-315.3596536 2750.26928516 -321.84167509 2743.94992966 -328.26963615 2737.5210762 C-330.03222709 2735.76067724 -331.80269224 2734.00846395 -333.57359123 2732.25642776 C-339.61066768 2726.24852817 -345.31272088 2720.17935092 -350.59312248 2713.48591995 C-352.45237761 2711.15847234 -354.39988789 2708.95265694 -356.41148186 2706.75642776 C-417.25174625 2638.85006968 -454.20758074 2545.11082511 -466.78648186 2400.19392776 C-466.78324913 2398.39851044 -466.78324913 2398.39851044 -466.7799511 2396.56682205 C-466.72352943 2376.9407244 -466.13743033 2357.58947958 -463.47398186 2338.13142776 C-463.3768792 2337.42103348 -463.27977654 2336.71063919 -463.17973137 2335.9787178 C-454.03137677 2270.07355765 -432.17832841 2206.9929987 -397.47398186 2150.13142776 C-396.78610588 2148.99012405 -396.78610588 2148.99012405 -396.08433342 2147.8257637 C-389.70452844 2137.24427036 -382.74337677 2127.11962719 -375.47398186 2117.13142776 C-374.97076408 2116.43984573 -374.46754631 2115.7482637 -373.94907951 2115.03572464 C-368.03824284 2106.9518142 -361.9404672 2099.09247744 -355.38877678 2091.51741409 C-353.52717132 2089.36356524 -351.68611585 2087.1953211 -349.86558342 2085.00667191 C-342.58745473 2076.30283554 -334.82112484 2068.19802705 -326.76353264 2060.215168 C-324.70670179 2058.17680283 -322.65819569 2056.1303383 -320.61070061 2054.08259964 C-319.27914279 2052.75595241 -317.94712787 2051.42976378 -316.61460686 2050.10408401 C-316.01545464 2049.50604462 -315.41630241 2048.90800522 -314.79899406 2048.29184341 C-310.51190417 2044.05180441 -306.04238995 2040.06502654 -301.47398186 2036.13142776 C-300.50976311 2035.28580276 -299.54554436 2034.44017776 -298.55210686 2033.56892776 C-276.90127573 2014.90854293 -253.23306056 1998.37602908 -228.47398186 1984.13142776 C-227.74566154 1983.70942093 -227.01734123 1983.28741409 -226.26695061 1982.85261917 C-205.10603771 1970.64254032 -183.22279888 1960.13131632 -160.45103264 1951.28914261 C-157.88719069 1950.29211632 -155.33404754 1949.27279718 -152.78257561 1948.24470901 C-111.8791895 1932.1147701 -67.17300211 1923.68894217 -23.47398186 1920.13142776 C-26.29194208 1918.72244765 -28.9212756 1918.70623773 -32.05991936 1918.40486526 C-33.4614822 1918.26374303 -34.86292585 1918.12143333 -36.26426506 1917.97810745 C-37.00971581 1917.90217361 -37.75516655 1917.82623978 -38.52320671 1917.74800491 C-108.30227774 1910.50008629 -175.55277506 1887.60373252 -235.47398186 1851.13142776 C-236.59570793 1850.45732864 -236.59570793 1850.45732864 -237.74009514 1849.76961136 C-260.86715854 1835.86516297 -282.97266438 1819.67729068 -302.89195061 1801.46736526 C-304.99114317 1799.56824703 -307.11087852 1797.70279939 -309.24741936 1795.84627151 C-319.04793338 1787.28701076 -328.77269857 1778.45304738 -337.30601311 1768.61580276 C-339.45649568 1766.15146598 -341.66900643 1763.7609104 -343.9039135 1761.37361526 C-349.70514018 1755.16735813 -355.20258236 1748.798445 -360.47398186 1742.13142776 C-360.96559807 1741.51767288 -361.45721428 1740.903918 -361.96372795 1740.27156448 C-376.82634747 1721.69890455 -390.28418626 1702.32987194 -402.04380608 1681.64509964 C-403.35198097 1679.34585608 -404.67807496 1677.05808919 -406.00913811 1674.77205276 C-439.93477528 1615.8593927 -458.96998682 1549.56880247 -465.47398186 1482.13142776 C-465.57710686 1481.10541458 -465.68023186 1480.0794014 -465.78648186 1479.02229691 C-468.62504279 1446.21410822 -467.94868912 1411.75950158 -463.47398186 1379.13142776 C-463.37923576 1378.42401443 -463.28448967 1377.7166011 -463.18687248 1376.98775101 C-457.23167857 1332.65707345 -445.65259089 1289.07024648 -427.47398186 1248.13142776 C-427.03118889 1247.12531448 -426.58839592 1246.1192012 -426.13218498 1245.08259964 C-410.13362655 1208.93770837 -390.07422 1175.09151203 -365.47398186 1144.13142776 C-364.71383781 1143.17405716 -364.71383781 1143.17405716 -363.93833733 1142.19734573 C-357.8087801 1134.50546073 -351.59183576 1126.95767366 -344.88804436 1119.75642776 C-343.02023438 1117.72541109 -341.22278739 1115.66905041 -339.43101311 1113.57283401 C-334.89718842 1108.37442233 -330.01594779 1103.52348162 -325.13145256 1098.65852737 C-323.53939219 1097.0718283 -321.95275196 1095.47985035 -320.36655998 1093.88728714 C-314.90772309 1088.42461462 -309.3639379 1083.13149276 -303.47398186 1078.13142776 C-302.42532137 1077.20636454 -301.37837217 1076.27935685 -300.33335686 1075.35017776 C-290.48045134 1066.69414763 -280.04153895 1058.88798779 -269.47398186 1051.13142776 C-268.84524162 1050.66494827 -268.21650139 1050.19846878 -267.56870842 1049.71785355 C-200.42559147 999.90631698 -118.29943213 969.7147696 -20.47398186 960.13142776 C-21.52746819 960.01662064 -22.58095451 959.90181351 -23.66636467 959.78352737 C-113.87926698 949.84157915 -198.7479359 921.92299323 -279.47398186 861.13142776 C-280.71860493 860.17547905 -281.96339694 859.21975025 -283.20835686 858.26424026 C-289.4443869 853.44978 -295.46287301 848.49402217 -301.26695061 843.15877151 C-303.20227471 841.38101362 -305.16801202 839.65566525 -307.16148186 837.94392776 C-319.24614592 827.4035514 -331.27086206 816.37509118 -341.70445061 804.18220901 C-343.71184208 801.85576194 -345.77864824 799.58950091 -347.84898186 797.31892776 C-352.10389842 792.59203726 -356.18571399 787.75550638 -360.15171623 782.78377151 C-361.07795852 781.6263107 -362.00939918 780.47299956 -362.94468498 779.32283401 C-377.69042307 761.16017768 -390.91230063 741.47152561 -402.47398186 721.13142776 C-403.03593254 720.15544632 -403.03593254 720.15544632 -403.60923576 719.15974808 C-438.61634664 658.22937884 -458.40157663 591.90483857 -465.47398186 522.13142776 C-465.58000725 521.09236282 -465.68603264 520.05329788 -465.79527092 518.98274612 C-473.02717097 435.21323723 -456.96428483 348.73321942 -420.47398186 273.13142776 C-419.9752758 272.08632034 -419.47656975 271.04121292 -418.96275139 269.96443558 C-398.98615387 228.24618932 -372.62051655 190.25951108 -341.47398186 156.13142776 C-340.66831779 155.2329512 -339.86265373 154.33447464 -339.03257561 153.40877151 C-333.59964186 147.39287021 -328.00753596 141.5619118 -322.28648186 135.81892776 C-321.63349113 135.16134476 -320.98050041 134.50376175 -320.30772209 133.82625198 C-316.42153079 129.95229218 -312.42053112 126.26859704 -308.26670647 122.68342972 C-306.08489439 120.794586 -303.9687994 118.83936833 -301.84898186 116.88142776 C-296.19258456 111.77940937 -290.23077195 107.11720463 -284.20152092 102.46931839 C-282.62470387 101.24815425 -281.06036405 100.01092231 -279.49741936 98.77205276 C-261.49102439 84.61399023 -242.45103342 72.30580592 -222.47398186 61.13142776 C-221.50911858 60.58389847 -220.54425529 60.03636917 -219.55015373 59.47224808 C-166.03028766 29.14912288 -106.54011315 10.50839527 -45.59898186 2.88142776 C-44.93442986 2.79825302 -44.26987785 2.71507828 -43.58518791 2.62938309 C-29.03582864 0.8302712 -14.65618044 -0.01702164 0 0 Z M493.52601814 960.13142776 C493.52601814 1108.30142776 493.52601814 1256.47142776 493.52601814 1409.13142776 C493.85601814 1409.13142776 494.18601814 1409.13142776 494.52601814 1409.13142776 C494.58547615 1408.35057816 494.64493416 1407.56972855 494.70619392 1406.76521683 C499.16264057 1350.152751 511.79938869 1294.90688353 535.52601814 1243.13142776 C536.00538826 1242.08454788 536.48475838 1241.037668 536.97865486 1239.95906448 C553.47252903 1204.24680873 573.71916765 1170.70731325 598.52601814 1140.13142776 C599.30590096 1139.15818558 600.08578377 1138.18494339 600.88929939 1137.18220901 C605.17061026 1131.88048209 609.59214087 1126.74300616 614.19008064 1121.71345901 C615.43861328 1120.333392 616.68171211 1118.94764453 617.88466072 1117.527668 C623.31214436 1111.15451833 629.22480272 1105.28139923 635.15028572 1099.37678909 C636.95962747 1097.57280691 638.76356133 1095.76354112 640.56703377 1093.95369339 C646.3813269 1088.13534454 652.20417268 1082.40406118 658.52601814 1077.13142776 C659.16724617 1076.58881302 659.8084742 1076.04619827 660.46913338 1075.48714066 C730.03845276 1016.88676281 812.71130289 979.19784903 939.52601814 961.13142776 C939.52601814 960.80142776 939.52601814 960.47142776 939.52601814 960.13142776 C792.34601814 960.13142776 645.16601814 960.13142776 493.52601814 960.13142776 Z " fill="#A159FE" transform="translate(466.4739818572998,-0.13142776489257813)"/>
<path d="M0 0 C1.74871801 -0.00165264 3.49743566 -0.00374028 5.2461527 -0.0062201 C10.04114244 -0.0117579 14.83611423 -0.01111966 19.63110614 -0.00944251 C24.85201075 -0.0087089 30.0729104 -0.01374024 35.29381287 -0.01801753 C45.64441396 -0.02558432 55.99500988 -0.02778992 66.34561345 -0.02834659 C78.7460087 -0.02926155 91.1463992 -0.03593307 103.5467924 -0.04269341 C132.8068748 -0.05836224 162.06695551 -0.06444069 191.32704118 -0.06910044 C206.22308844 -0.07148596 221.11913526 -0.07518993 236.01518218 -0.07913754 C283.83053995 -0.09180165 331.6458977 -0.10258461 379.46125711 -0.10597799 C381.74565121 -0.10614023 384.0300453 -0.10630579 386.31443939 -0.10647238 C390.89560384 -0.10680617 395.47676829 -0.10713665 400.05793273 -0.10746694 C405.42102806 -0.10785383 410.78412338 -0.10824344 416.1472187 -0.108638 C417.68216326 -0.10875042 419.21710783 -0.10886184 420.75205239 -0.10897225 C470.01937556 -0.11251952 519.28668412 -0.12758925 568.55400171 -0.15091 C603.96488587 -0.167665 639.37576726 -0.18313234 674.78665543 -0.18764496 C675.88038351 -0.18778519 675.88038351 -0.18778519 676.9962071 -0.18792825 C693.0077129 -0.18994788 709.01921865 -0.19110344 725.03072457 -0.19145683 C730.7609863 -0.19159299 736.49124803 -0.19180198 742.22150976 -0.19205009 C743.64694858 -0.19211165 745.0723874 -0.19216997 746.49782622 -0.19222504 C769.15812055 -0.1931427 791.81839958 -0.20308495 814.47868887 -0.21768252 C837.96135729 -0.23274923 861.4439995 -0.23686206 884.92667364 -0.22858956 C898.44647236 -0.22414652 911.96620845 -0.22794067 925.48599889 -0.24382807 C934.53702276 -0.25362704 943.58800307 -0.25235322 952.63902661 -0.24239184 C957.78293856 -0.23703503 962.92673085 -0.23617436 968.07063256 -0.24890056 C997.00746284 -0.31600653 1025.33271811 0.92146875 1053.90101814 5.94392776 C1054.64363899 6.07115219 1055.38625984 6.19837662 1056.15138435 6.32945633 C1078.02228558 10.08289455 1099.32672424 15.59727311 1120.52601814 22.13142776 C1121.39081795 22.39504105 1122.25561775 22.65865433 1123.14662361 22.93025589 C1170.19766462 37.41308356 1216.65794839 60.85642221 1255.74427986 90.77791214 C1257.64768317 92.22385184 1259.57062102 93.64042079 1261.49867439 95.05330276 C1270.52952694 101.694207 1279.13779844 108.69714156 1287.52601814 116.13142776 C1288.40773689 116.91259964 1289.28945564 117.69377151 1290.19789314 118.49861526 C1292.65328123 120.69595301 1295.09069341 122.9118913 1297.52601814 125.13142776 C1298.87179939 126.33799026 1298.87179939 126.33799026 1300.24476814 127.56892776 C1306.26164792 133.00352885 1312.09422127 138.59656584 1317.83851814 144.31892776 C1318.82489265 145.29841385 1318.82489265 145.29841385 1319.83119392 146.29768753 C1324.26550849 150.74600284 1328.4268785 155.37479404 1332.52601814 160.13142776 C1333.5478191 161.2878238 1334.57120629 162.44282058 1335.59633064 163.59627151 C1343.13149417 172.13530934 1350.18524056 180.95603581 1356.99574471 190.08211136 C1358.43300466 192.00686568 1359.88094834 193.92311252 1361.33070564 195.83845901 C1414.3394184 266.39251099 1443.67997253 350.86001803 1452.52601814 438.13142776 C1452.63204353 439.17049271 1452.73806892 440.20955765 1452.84730721 441.28010941 C1462.0449894 547.81992821 1433.40880013 656.58613022 1354.52601814 773.13142776 C1353.57006943 774.37605084 1352.61434063 775.62084285 1351.65883064 776.86580276 C1346.84437038 783.1018328 1341.88861255 789.12031892 1336.55336189 794.92439651 C1334.775604 796.85972062 1333.05025563 798.82545793 1331.33851814 800.81892776 C1321.13050854 812.5260157 1310.47767935 824.14329548 1298.67836189 834.26033401 C1296.14549652 836.46222605 1293.68269292 838.73338602 1291.21351814 841.00642776 C1225.12157587 901.1311085 1139.48925859 940.1442954 962.24565221 960.39456423 C957.06527573 960.39034977 951.88491282 960.39782059 946.70453978 960.40371674 C937.64679864 960.41243691 928.58908012 960.41380584 919.53133583 960.41021347 C906.06126815 960.40488537 892.5912222 960.4110229 879.12115688 960.4192964 C854.35733003 960.43408951 829.59351623 960.4363894 804.82968679 960.43397602 C801.32706175 960.43363753 797.82443672 960.43331544 794.32181168 960.43301034 C793.6259858 960.4329493 792.93015993 960.43288825 792.21324842 960.43282536 C776.75640624 960.43155059 761.29956543 960.43416009 745.84272366 960.43753641 C742.30771973 960.43830716 738.77271581 960.43905191 735.23771188 960.43980142 C733.81883741 960.44010312 732.39996295 960.440405 730.98108849 960.44070706 C729.92607878 960.44093158 729.92607878 960.44093158 728.84975573 960.44116064 C727.42701826 960.44146418 726.00428079 960.44176886 724.58154333 960.44207468 C684.23935774 960.45074151 643.89717336 960.45539614 603.55498695 960.45112705 C602.80879224 960.451049 602.06259752 960.45097094 601.29379085 960.45089052 C592.97397847 960.45001781 584.65416611 960.44908854 576.33435374 960.44813988 C575.20773925 960.44801162 575.20773925 960.44801162 574.05836486 960.44788076 C567.81963058 960.4471702 567.81963058 960.4471702 564.94619983 960.44683854 C516.92071503 960.4413046 468.89524946 960.44884222 420.86976814 960.46760941 C408.76937807 960.47233214 396.66898798 960.47701287 384.56859779 960.48144627 C383.82339352 960.48171959 383.07818925 960.48199291 382.31040303 960.48227452 C359.31898888 960.49065425 336.32757633 960.49532627 313.33616066 960.49615383 C312.61364858 960.4961802 311.8911365 960.49620656 311.14673011 960.49623373 C295.28100469 960.49677468 279.41527941 960.49640169 263.54955403 960.49519402 C257.87167389 960.49476844 252.19379374 960.4944033 246.51591359 960.49406457 C245.10356854 960.49397927 243.69122349 960.49389034 242.27887844 960.49379776 C219.83851636 960.49235309 197.39816741 960.49944853 174.95780848 960.51080172 C151.70771958 960.52248837 128.45765652 960.52297465 105.20756537 960.51095829 C91.82587785 960.50435089 78.44425191 960.50591162 65.06256937 960.51954681 C56.10147634 960.52783662 47.14042908 960.5250354 38.17933971 960.51357154 C33.08864628 960.50735969 27.99807231 960.50559704 22.90738612 960.51743487 C-82.46099548 960.74539258 -184.73244176 931.44167802 -279.47398186 861.13142776 C-280.71860493 860.17547905 -281.96339694 859.21975025 -283.20835686 858.26424026 C-289.4443869 853.44978 -295.46287301 848.49402217 -301.26695061 843.15877151 C-303.20227471 841.38101362 -305.16801202 839.65566525 -307.16148186 837.94392776 C-319.24614592 827.4035514 -331.27086206 816.37509118 -341.70445061 804.18220901 C-343.71184208 801.85576194 -345.77864824 799.58950091 -347.84898186 797.31892776 C-352.10389842 792.59203726 -356.18571399 787.75550638 -360.15171623 782.78377151 C-361.07795852 781.6263107 -362.00939918 780.47299956 -362.94468498 779.32283401 C-377.69042307 761.16017768 -390.91230063 741.47152561 -402.47398186 721.13142776 C-403.03593254 720.15544632 -403.03593254 720.15544632 -403.60923576 719.15974808 C-438.61634664 658.22937884 -458.40157663 591.90483857 -465.47398186 522.13142776 C-465.58000725 521.09236282 -465.68603264 520.05329788 -465.79527092 518.98274612 C-473.02717097 435.21323723 -456.96428483 348.73321942 -420.47398186 273.13142776 C-419.9752758 272.08632034 -419.47656975 271.04121292 -418.96275139 269.96443558 C-398.98615387 228.24618932 -372.62051655 190.25951108 -341.47398186 156.13142776 C-340.66831779 155.2329512 -339.86265373 154.33447464 -339.03257561 153.40877151 C-333.59964186 147.39287021 -328.00753596 141.5619118 -322.28648186 135.81892776 C-321.63349113 135.16134476 -320.98050041 134.50376175 -320.30772209 133.82625198 C-316.42153079 129.95229218 -312.42053112 126.26859704 -308.26670647 122.68342972 C-306.08489439 120.794586 -303.9687994 118.83936833 -301.84898186 116.88142776 C-296.19258456 111.77940937 -290.23077195 107.11720463 -284.20152092 102.46931839 C-282.62470387 101.24815425 -281.06036405 100.01092231 -279.49741936 98.77205276 C-261.49102439 84.61399023 -242.45103342 72.30580592 -222.47398186 61.13142776 C-221.50911858 60.58389847 -220.54425529 60.03636917 -219.55015373 59.47224808 C-166.03028766 29.14912288 -106.54011315 10.50839527 -45.59898186 2.88142776 C-44.93442986 2.79825302 -44.26987785 2.71507828 -43.58518791 2.62938309 C-29.03582864 0.8302712 -14.65618044 -0.01702164 0 0 Z " fill="#FE7161" transform="translate(466.4739818572998,-0.13142776489257813)"/>
<path d="M0 0 C2.11389682 -0.00043802 4.22779359 -0.00131602 6.34169006 -0.00259399 C12.13612322 -0.00482894 17.93053777 -0.00083447 23.72496857 0.00418179 C30.07491429 0.008558 36.4248592 0.00708654 42.77480602 0.00636387 C53.69520025 0.00589312 64.61558767 0.00895615 75.53598022 0.01467896 C91.18688567 0.02286624 106.83778457 0.02478287 122.48869324 0.02565002 C160.10901503 0.03089794 197.7293352 0.04485908 235.34965515 0.05775452 C319.39653015 0.07837952 403.44340515 0.09900452 490.03715515 0.12025452 C490.03715515 316.92025452 490.03715515 633.72025452 490.03715515 960.12025452 C365.57559265 960.21306702 365.57559265 960.21306702 238.59965515 960.30775452 C212.43112244 960.33506653 186.26258972 960.36237854 159.30107117 960.39051819 C127.26750183 960.40406799 127.26750183 960.40406799 112.25601196 960.40658569 C101.11943813 960.40955566 89.98291212 960.42243905 78.84635584 960.4402748 C67.45448082 960.45826995 56.06265391 960.46450051 44.67076265 960.46058937 C38.50384326 960.45879619 32.3370271 960.46146925 26.17012703 960.47789991 C-81.94142015 960.75156293 -185.6571602 933.32645063 -282.96284485 861.12025452 C-284.20746792 860.1643058 -285.45225993 859.20857701 -286.69721985 858.25306702 C-292.93324989 853.43860676 -298.951736 848.48284892 -304.7558136 843.14759827 C-306.6911377 841.36984037 -308.65687501 839.644492 -310.65034485 837.93275452 C-322.73500891 827.39237816 -334.75972505 816.36391793 -345.1933136 804.17103577 C-347.20070507 801.84458869 -349.26751123 799.57832766 -351.33784485 797.30775452 C-355.59276141 792.58086401 -359.67457698 787.74433313 -363.64057922 782.77259827 C-364.56682151 781.61513745 -365.49826217 780.46182631 -366.43354797 779.31166077 C-381.17928606 761.14900444 -394.40116362 741.46035236 -405.96284485 721.12025452 C-406.52479553 720.14427307 -406.52479553 720.14427307 -407.09809875 719.14857483 C-442.10520963 658.21820559 -461.89043962 591.89366532 -468.96284485 522.12025452 C-469.06887024 521.08118958 -469.17489563 520.04212463 -469.28413391 518.97157288 C-476.51603396 435.20206398 -460.45314782 348.72204617 -423.96284485 273.12025452 C-423.46413879 272.07514709 -422.96543274 271.03003967 -422.45161438 269.95326233 C-402.47501686 228.23501607 -376.10937954 190.24833783 -344.96284485 156.12025452 C-344.15718079 155.22177795 -343.35151672 154.32330139 -342.5214386 153.39759827 C-337.08850485 147.38169696 -331.49639895 141.55073855 -325.77534485 135.80775452 C-325.12235413 135.15017151 -324.4693634 134.4925885 -323.79658508 133.81507874 C-319.91039378 129.94111893 -315.90939411 126.25742379 -311.75556946 122.67225647 C-309.57375738 120.78341276 -307.45766239 118.82819508 -305.33784485 116.87025452 C-299.68144755 111.76823613 -293.71963494 107.10603138 -287.69038391 102.45814514 C-286.11356686 101.23698101 -284.54922704 99.99974906 -282.98628235 98.76087952 C-264.97988738 84.60281698 -245.93989641 72.29463267 -225.96284485 61.12025452 C-224.99798157 60.57272522 -224.03311829 60.02519592 -223.03901672 59.46107483 C-169.51915065 29.13794963 -110.02897614 10.49722202 -49.08784485 2.87025452 C-48.42329285 2.78707977 -47.75874084 2.70390503 -47.0740509 2.61820984 C-42.70767168 2.07828196 -38.34150134 1.54971469 -33.96284485 1.12025452 C-33.13919066 1.03652747 -32.31553647 0.95280043 -31.46692306 0.8665362 C-20.97927619 -0.0737361 -10.52142492 -0.01618521 0 0 Z " fill="#F14D1E" transform="translate(469.9628448486328,-0.1202545166015625)"/>
<path d="M0 0 C2.14978341 -0.00087437 4.29956661 -0.00262959 6.44934869 -0.00517833 C12.29880325 -0.00961042 18.14818336 -0.00170577 23.99762845 0.00837779 C30.32726093 0.01707028 36.65688971 0.01408805 42.98652649 0.01257324 C53.93385687 0.01152804 64.8811598 0.01769591 75.82848358 0.02904892 C87.30006779 0.04091491 98.77164242 0.04858723 110.24323273 0.05075455 C110.95859922 0.05089203 111.67396571 0.05102951 112.41100998 0.05117115 C116.04453402 0.05184789 119.67805806 0.05245063 123.31158212 0.0530249 C148.99526452 0.05721695 174.67893447 0.07066708 200.36260986 0.08963013 C225.3017368 0.10802209 250.24086031 0.12217798 275.17999268 0.13064575 C275.94978906 0.1309088 276.71958544 0.13117186 277.51270899 0.13144288 C285.24387433 0.1340801 292.97503969 0.1366317 300.70620508 0.1391206 C316.45310338 0.14419195 332.20000145 0.14983446 347.94689941 0.15582275 C348.67079139 0.15609733 349.39468336 0.15637191 350.14051146 0.15665481 C398.41620971 0.17503173 446.69190063 0.20676105 494.96759033 0.24050903 C495.01901854 48.41066777 495.06677068 96.58082846 495.09461975 144.75100708 C495.09503392 145.4655554 495.09544809 146.18010372 495.09587482 146.91630502 C495.1048565 162.45066179 495.11316662 177.98501884 495.12078632 193.51937634 C495.12452787 201.13898574 495.12841759 208.75859506 495.13238525 216.37820435 C495.13277753 217.13638983 495.13316981 217.89457531 495.13357397 218.67573611 C495.14632566 243.18799716 495.16883521 267.70023726 495.19648199 292.21248566 C495.22487424 317.43186924 495.24326846 342.65124126 495.2493353 367.87064055 C495.25019959 371.44429832 495.25117649 375.01795605 495.25222206 378.59161377 C495.25242433 379.29486298 495.2526266 379.99811219 495.252835 380.72267198 C495.25636062 391.97850796 495.27022147 403.23430788 495.28808643 414.49012923 C495.30588316 425.8451152 495.3122205 437.20005526 495.30809446 448.55505848 C495.30618779 454.6915714 495.30894705 460.82797977 495.32520676 466.96447372 C495.38883351 492.22750349 495.16962986 517.14917046 491.96759033 542.24050903 C491.78833985 543.64938983 491.78833985 543.64938983 491.60546815 545.08673286 C490.95663767 550.07571664 490.20733722 555.03449141 489.34259033 559.99050903 C489.21853821 560.71689575 489.09448608 561.44328247 488.9666748 562.19168091 C480.69729598 610.21852817 464.68099824 655.68753876 442.96759033 699.24050903 C442.5451001 700.08951782 442.12260986 700.93852661 441.68731689 701.81326294 C424.5161532 736.03797963 402.14922189 768.38665536 376.30352783 796.65847778 C374.4044096 798.75767034 372.53896196 800.87740569 370.68243408 803.01394653 C362.12071439 812.81727609 353.28538016 822.55009514 343.44024658 831.08035278 C341.5756222 832.70932163 339.76245899 834.35785199 337.96368408 836.05691528 C331.40470521 842.24811963 324.66274346 848.00490469 317.50665283 853.49441528 C315.22692993 855.24542594 312.99738535 857.03551416 310.80352783 858.89285278 C234.82227966 922.73939181 130.02094537 957.56741966 15.65509033 960.42800903 C14.83676727 960.42740479 14.01844421 960.42680054 13.17532349 960.42617798 C-62.54353551 960.27605657 -135.38600268 941.9688759 -203.03240967 908.24050903 C-203.94619385 907.7856311 -204.85997803 907.33075317 -205.80145264 906.86209106 C-238.76072861 890.33111464 -269.21016229 869.39988351 -297.03240967 845.24050903 C-297.76717529 844.60629028 -298.50194092 843.97207153 -299.25897217 843.31863403 C-301.19427875 841.63777015 -303.11368858 839.94027287 -305.03240967 838.24050903 C-305.71980225 837.63722778 -306.40719482 837.03394653 -307.11541748 836.41238403 C-313.91808141 830.37836643 -320.4001029 824.05901093 -326.82806396 817.63015747 C-328.5906549 815.86975851 -330.36112006 814.11754521 -332.13201904 812.36550903 C-338.16909549 806.35760944 -343.87114869 800.28843218 -349.15155029 793.59500122 C-351.01080542 791.26755361 -352.9583157 789.06173821 -354.96990967 786.86550903 C-415.81017406 718.95915095 -452.76600855 625.21990638 -465.34490967 480.30300903 C-465.34275452 479.10606415 -465.34059937 477.90911926 -465.33837891 476.67590332 C-465.28195724 457.04980567 -464.69585814 437.69856085 -462.03240967 418.24050903 C-461.93530701 417.53011475 -461.83820435 416.81972046 -461.73815918 416.08779907 C-452.58980458 350.18263892 -430.73675623 287.10207996 -396.03240967 230.24050903 C-395.57382568 229.47963989 -395.1152417 228.71877075 -394.64276123 227.93484497 C-388.26295625 217.35335163 -381.30180458 207.22870846 -374.03240967 197.24050903 C-373.27758301 196.20313599 -373.27758301 196.20313599 -372.50750732 195.14480591 C-366.59667065 187.06089547 -360.49889501 179.20155871 -353.94720459 171.62649536 C-352.08559913 169.4726465 -350.24454366 167.30440236 -348.42401123 165.11575317 C-341.14588254 156.41191681 -333.37955265 148.30710832 -325.32196045 140.32424927 C-323.2651296 138.2858841 -321.2166235 136.23941956 -319.16912842 134.19168091 C-317.8375706 132.86503368 -316.50555568 131.53884505 -315.17303467 130.21316528 C-314.57388245 129.61512589 -313.97473022 129.01708649 -313.35742188 128.40092468 C-309.07033198 124.16088568 -304.60081776 120.1741078 -300.03240967 116.24050903 C-299.06819092 115.39488403 -298.10397217 114.54925903 -297.11053467 113.67800903 C-275.45970354 95.0176242 -251.79148838 78.48511035 -227.03240967 64.24050903 C-226.30408936 63.8185022 -225.57576904 63.39649536 -224.82537842 62.96170044 C-203.66446552 50.75162158 -181.78122669 40.24039759 -159.00946045 31.39822388 C-156.4456185 30.40119759 -153.89247535 29.38187845 -151.34100342 28.35379028 C-103.97935973 9.67708666 -50.82252936 -0.15609328 0 0 Z " fill="#09CF83" transform="translate(465.03240966796875,1919.7594909667969)"/>
<path d="M0 0 C1.03140987 -0.00729724 1.03140987 -0.00729724 2.08365631 -0.0147419 C7.28623364 -0.05110735 12.48871219 -0.06743858 17.69140625 -0.07421875 C18.4555698 -0.07536934 19.21973335 -0.07651993 20.00705338 -0.07770538 C42.92952734 -0.10170148 65.57875879 0.23938525 88.25787354 3.91540527 C90.31946605 4.24888613 92.38284924 4.56901323 94.44677734 4.88769531 C136.40401763 11.44709045 177.63059632 23.53875646 216.25390625 41.23828125 C217.30078613 41.71765137 218.34766602 42.19702148 219.42626953 42.69091797 C263.40900578 63.00455266 303.92165154 89.3032985 339.7421875 121.97265625 C341.11487576 123.21085095 342.49393419 124.44260196 343.90161133 125.64086914 C349.78924898 130.67427874 355.26452883 136.09659249 360.72680664 141.58081055 C362.31350571 143.17287091 363.90548367 144.75951115 365.49804688 146.34570312 C370.95989079 151.80365897 376.2683813 157.33672356 381.25390625 163.23828125 C382.13075228 164.24805467 383.00831247 165.25720856 383.88671875 166.265625 C391.36215536 174.99477903 398.38400717 184.02660052 405.25390625 193.23828125 C405.79837402 193.96708496 406.3428418 194.69588867 406.90380859 195.44677734 C455.71476066 261.08409031 485.17219413 338.46162149 496.25390625 419.23828125 C496.34692017 419.90911743 496.43993408 420.57995361 496.5357666 421.27111816 C509.39920292 515.31765511 490.39305715 613.16350685 403.71875 768.6171875 C396.37275415 778.27536566 388.77959432 787.69772974 380.58984375 796.65625 C378.69072552 798.75544256 376.82527788 800.87517791 374.96875 803.01171875 C366.40948925 812.81223277 357.57552587 822.53699796 347.73828125 831.0703125 C345.27394447 833.22079507 342.88338888 835.43330582 340.49609375 837.66821289 C334.28923421 843.47000267 327.91498596 848.95857049 321.25390625 854.23828125 C320.04278477 855.22633703 318.83186082 856.21463495 317.62109375 857.203125 C308.12457319 864.85958034 298.21003316 871.79104543 288.06640625 878.55078125 C287.44381927 878.96671539 286.8212323 879.38264954 286.17977905 879.81118774 C207.20732784 932.44691505 114.82988796 960.53328433 20.00390625 960.42578125 C18.40320786 960.42437637 18.40320786 960.42437637 16.77017212 960.42294312 C-54.33244617 960.28779108 -123.3119495 944.15445061 -187.74609375 914.23828125 C-188.76880371 913.76422852 -189.79151367 913.29017578 -190.84521484 912.80175781 C-233.37179731 892.85353393 -272.18044833 864.88435481 -306.74609375 833.23828125 C-307.24608887 832.78340332 -307.74608398 832.32852539 -308.26123047 831.85986328 C-317.89961002 823.08890859 -327.48824353 814.24125752 -335.953125 804.30859375 C-338.07756199 801.85554015 -340.28798012 799.49124978 -342.49609375 797.11328125 C-347.74500908 791.34976638 -352.54684771 785.30352329 -357.29101562 779.12158203 C-358.74474565 777.24002609 -360.21955978 775.3768343 -361.69921875 773.515625 C-381.79609935 748.02440271 -398.13659493 720.16208696 -412.74609375 691.23828125 C-413.40158203 689.94349854 -413.40158203 689.94349854 -414.0703125 688.62255859 C-436.8189486 643.30902539 -450.30018499 594.30862524 -457.45184326 544.2824707 C-457.72299919 542.39872158 -458.00573822 540.51664945 -458.28955078 538.63476562 C-463.94025776 499.78124513 -463.42186144 456.07410471 -457.74609375 417.23828125 C-457.55033394 415.83958076 -457.35504089 414.44081489 -457.16015625 413.04199219 C-450.83045994 368.25205093 -438.60901169 324.40030872 -419.74609375 283.23828125 C-419.26672363 282.19140137 -418.78735352 281.14452148 -418.29345703 280.06591797 C-401.79958286 244.35366222 -381.55294424 210.81416674 -356.74609375 180.23828125 C-355.96621094 179.26503906 -355.18632813 178.29179688 -354.3828125 177.2890625 C-350.10150163 171.98733557 -345.67997102 166.84985965 -341.08203125 161.8203125 C-339.83904701 160.44637842 -338.60123634 159.06694708 -337.4050293 157.65209961 C-331.84676538 151.11690236 -325.76690297 145.10814864 -319.69458008 139.05639648 C-317.81281101 137.1799865 -315.93644637 135.29829156 -314.06054688 133.41601562 C-308.12847778 127.47996501 -302.20127948 121.61156265 -295.74609375 116.23828125 C-295.10551025 115.69631104 -294.46492676 115.15434082 -293.80493164 114.59594727 C-224.24268218 55.99079421 -141.55674792 18.30406648 -26.74609375 1.23828125 C-25.87430481 1.15136017 -25.00251587 1.06443909 -24.10430908 0.97488403 C-16.06389685 0.23526076 -8.07146393 0.04676093 0 0 Z " fill="#19BBFE" transform="translate(1420.74609375,959.76171875)"/>
</svg>
