<?xml version="1.0" encoding="UTF-8"?>
<svg version="1.1" xmlns="http://www.w3.org/2000/svg" width="320" height="320">
<path d="M0 0 C-1.33864464 2.9730715 -2.81136873 5.06337088 -5.1085186 7.36858082 C-5.75097869 8.0181065 -6.39343878 8.66763218 -7.05536735 9.33684045 C-7.76274768 10.04180569 -8.470128 10.74677093 -9.19894409 11.47309875 C-9.94920431 12.22859565 -10.69946453 12.98409255 -11.47245991 13.7624833 C-13.99493034 16.29999009 -16.52453376 18.8302631 -19.05419922 21.3605957 C-20.86118426 23.17519952 -22.66776438 24.99020665 -24.47396851 26.80558777 C-29.38630374 31.73989672 -34.3052108 36.66759878 -39.22601461 41.59346032 C-42.29704655 44.66774881 -45.36644263 47.74366689 -48.43548965 50.81993675 C-56.9299836 59.33399108 -65.42605037 67.84646676 -73.92887688 76.35220051 C-74.47284086 76.89635206 -75.01680484 77.44050361 -75.57725257 78.0011446 C-76.68002327 79.10428155 -77.78279524 80.20741722 -78.88556848 81.31055162 C-79.43299397 81.85815992 -79.98041946 82.40576822 -80.54443359 82.9699707 C-81.3665729 83.79238084 -81.3665729 83.79238084 -82.20532109 84.63140532 C-91.09707833 93.52670843 -99.97702279 102.43370358 -108.85185491 111.3458899 C-117.95949171 120.49155434 -127.07640329 129.62788397 -136.20292294 138.75470608 C-141.32873913 143.8811079 -146.45049577 149.01142503 -151.56216049 154.1519413 C-156.36548391 158.98225098 -161.18139305 163.79964005 -166.00629044 168.6084156 C-167.77958568 170.37988516 -169.54857524 172.15567637 -171.3130188 173.93596268 C-173.71306054 176.35624317 -176.12781003 178.76079111 -178.54708862 181.16181946 C-179.2500075 181.87793831 -179.95292639 182.59405716 -180.67714584 183.33187658 C-181.32482142 183.96836352 -181.972497 184.60485046 -182.63979912 185.26062489 C-183.19614442 185.81778464 -183.75248972 186.3749444 -184.32569396 186.94898778 C-186 188 -186 188 -188.0798732 187.77669972 C-190.73525037 186.702588 -192.29040013 185.10637664 -194.32543945 183.09448242 C-195.1692366 182.26659714 -196.01303375 181.43871185 -196.88240051 180.58573914 C-198.23418648 179.23425529 -198.23418648 179.23425529 -199.61328125 177.85546875 C-201.00669991 176.47347038 -201.00669991 176.47347038 -202.42826843 175.06355286 C-204.39107685 173.11417998 -206.34785716 171.15898083 -208.30102539 169.19995117 C-210.80740785 166.6876596 -213.33159266 164.19413343 -215.86102009 161.70507336 C-218.26902206 159.32908792 -220.65878617 156.93506809 -223.05078125 154.54296875 C-223.96209305 153.64805222 -224.87340485 152.75313568 -225.81233215 151.83110046 C-226.6403685 150.9937587 -227.46840485 150.15641693 -228.3215332 149.29370117 C-229.05781448 148.55947433 -229.79409576 147.8252475 -230.5526886 147.06877136 C-232 145 -232 145 -231.89467812 143.235322 C-230.60608857 140.01582607 -228.42514504 137.70800636 -226.13246155 135.16607666 C-225.61932716 134.58687808 -225.10619278 134.0076795 -224.57750887 133.41092944 C-222.85014243 131.46747493 -221.11134858 129.53467686 -219.37133789 127.60253906 C-218.76392509 126.92353987 -218.1565123 126.24454067 -217.53069305 125.54496574 C-205.39835977 111.98385012 -192.9632476 98.7082089 -180.42861271 85.51912308 C-172.47204576 77.13633834 -164.61922933 68.692562 -156.97631836 60.02197266 C-108.91698995 5.63333164 -72.78799955 -11.84490293 0 0 Z " fill="#46C4FA" transform="translate(276,16)"/>
<path d="M0 0 C-0.58369988 3.30501712 -1.56274921 4.93552713 -3.92958069 7.29034424 C-4.86561378 8.23256332 -4.86561378 8.23256332 -5.82055664 9.19381714 C-6.50891602 9.87139069 -7.19727539 10.54896423 -7.90649414 11.24707031 C-8.62840439 11.96941864 -9.35031464 12.69176697 -10.09410095 13.43600464 C-12.48407783 15.82389008 -14.88450847 18.20097169 -17.28515625 20.578125 C-18.94347781 22.2308519 -20.60113864 23.88424202 -22.25816345 25.53826904 C-26.62293905 29.89158576 -30.99664864 34.23581874 -35.37225342 38.57824707 C-39.8349597 43.01027522 -44.28919424 47.4507993 -48.74414062 51.890625 C-57.4878039 60.60210567 -66.24092494 69.3040174 -75 78 C-73.68040562 80.92212665 -72.26066064 82.98520306 -69.98812866 85.23892212 C-69.37114609 85.8557637 -68.75416351 86.47260529 -68.1184845 87.10813904 C-67.44307114 87.77321976 -66.76765778 88.43830048 -66.07177734 89.12353516 C-65.35947464 89.83291733 -64.64717194 90.5422995 -63.9132843 91.2731781 C-62.36748055 92.8113754 -60.81937071 94.3472579 -59.26923752 95.88109207 C-56.81960572 98.30522428 -54.37625255 100.73552646 -51.93447876 103.16757202 C-46.75353757 108.32564853 -41.5648191 113.47585815 -36.375 118.625 C-30.35556428 124.59732552 -24.33931174 130.57278365 -18.33140945 136.5567131 C-15.91786729 138.95723751 -13.49840507 141.35168743 -11.07870483 143.7460022 C-9.60865463 145.20879158 -8.13888211 146.6718601 -6.66943359 148.13525391 C-5.98997177 148.80438309 -5.31050995 149.47351227 -4.61045837 150.16291809 C-3.99911545 150.77412003 -3.38777252 151.38532196 -2.75790405 152.01504517 C-2.22217459 152.54633341 -1.68644512 153.07762165 -1.13448143 153.62500954 C0 155 0 155 0 157 C-13.3093601 159.41563179 -26.62706946 160.98217419 -40.125 161.875 C-41.12718315 161.94176941 -42.1293663 162.00853882 -43.16191864 162.07733154 C-69.70244288 163.63624633 -90.13220454 160.03944521 -110.53668594 142.18204117 C-118.98670252 134.50817834 -126.91322221 126.41125877 -134.625 118 C-135.48066811 117.06729027 -136.33633621 116.13458054 -137.21793365 115.17360687 C-147.89879647 103.45684465 -158.13089522 91.40648004 -168 79 C-167.63488689 78.58058608 -167.26977379 78.16117216 -166.89359665 77.72904873 C-163.73234674 74.07288598 -160.67139328 70.35937467 -157.68463898 66.55977631 C-149.26998079 55.87745445 -140.40910649 45.61183115 -131.25 35.5625 C-130.4802182 34.71706635 -129.7104364 33.87163269 -128.91732788 33.00057983 C-91.06173244 -8.12169467 -52.74193473 -8.7145722 0 0 Z " fill="#46C4FA" transform="translate(276,147)"/>
<path d="M0 0 C2.93564734 1.32556885 5.01521239 2.76441027 7.29034424 5.03637695 C7.9184903 5.65888336 8.54663635 6.28138977 9.19381714 6.92276001 C10.21017746 7.94519302 10.21017746 7.94519302 11.24707031 8.98828125 C11.96941864 9.70712494 12.69176697 10.42596863 13.43600464 11.16659546 C15.82176741 13.54355666 18.20014173 15.92775779 20.578125 18.3125 C22.2312135 19.9642417 23.88459884 21.61568638 25.53826904 23.2668457 C29.00143318 26.72706096 32.46095261 30.19086931 35.91796875 33.65722656 C40.35911743 38.10978736 44.80920684 42.55328695 49.262043 46.99415588 C52.67644262 50.40134583 56.08608571 53.81326351 59.49428558 57.22665405 C61.13394917 58.86765569 62.77511039 60.50716227 64.41776276 62.14517212 C66.70687313 64.42923004 68.98951868 66.71955444 71.27050781 69.01171875 C71.95617828 69.69334076 72.64184875 70.37496277 73.34829712 71.07723999 C73.96516388 71.6997464 74.58203064 72.32225281 75.21759033 72.96362305 C75.7580965 73.50488327 76.29860268 74.04614349 76.85548782 74.60380554 C78 76 78 76 78 78 C63.6760552 78.96344996 49.35166868 79.62516676 35 80 C33.43766003 80.04108887 33.43766003 80.04108887 31.84375763 80.08300781 C-13.26473022 81.13360762 -13.26473022 81.13360762 -27.55291748 68.75048828 C-34.28224453 62.09607334 -39.68519193 54.39789238 -44 46 C-42.51657 42.55323 -40.56949812 40.32656699 -37.91748047 37.69042969 C-36.65639969 36.4295755 -36.65639969 36.4295755 -35.36984253 35.14324951 C-34.46146637 34.24519592 -33.55309021 33.34714233 -32.6171875 32.421875 C-31.68778351 31.4953009 -30.75837952 30.56872681 -29.80081177 29.61407471 C-27.3359615 27.15684211 -24.86516334 24.70567639 -22.39306641 22.2557373 C-19.86909235 19.75226191 -17.35080612 17.24307937 -14.83203125 14.734375 C-9.89356403 9.81732475 -4.948788 4.90666212 0 0 Z " fill="#00559C" transform="translate(198,226)"/>
<path d="M0 0 C3.44677 1.48343 5.67343301 3.43050188 8.30957031 6.08251953 C9.5704245 7.34360031 9.5704245 7.34360031 10.85675049 8.63015747 C11.75480408 9.53853363 12.65285767 10.44690979 13.578125 11.3828125 C14.5046991 12.31221649 15.43127319 13.24162048 16.38592529 14.19918823 C18.84315789 16.6640385 21.29432361 19.13483666 23.7442627 21.60693359 C26.24773809 24.13090765 28.75692063 26.64919388 31.265625 29.16796875 C36.18267525 34.10643597 41.09333788 39.051212 46 44 C44.51657 47.44677 42.56949812 49.67343301 39.91748047 52.30957031 C39.07675995 53.15013977 38.23603943 53.99070923 37.36984253 54.85675049 C36.00727829 56.20383087 36.00727829 56.20383087 34.6171875 57.578125 C33.68778351 58.5046991 32.75837952 59.43127319 31.80081177 60.38592529 C29.3359615 62.84315789 26.86516334 65.29432361 24.39306641 67.7442627 C21.86909235 70.24773809 19.35080612 72.75692063 16.83203125 75.265625 C11.89356403 80.18267525 6.948788 85.09333788 2 90 C-3.71700538 85.24863726 -8.97689423 80.15385413 -14.21484375 74.8828125 C-15.07058487 74.02565643 -15.92632599 73.16850037 -16.80799866 72.28536987 C-19.52020465 69.56760046 -22.2288983 66.84636109 -24.9375 64.125 C-26.78427369 62.27320658 -28.63127653 60.42164166 -30.47851562 58.5703125 C-34.98833201 54.04951565 -39.49527569 49.52587054 -44 45 C-39.31179066 39.36431339 -34.30014592 34.16896034 -29.1015625 29.00390625 C-28.26660248 28.17036118 -27.43164246 27.3368161 -26.57138062 26.47801208 C-23.92494152 23.83713476 -21.27503241 21.19977104 -18.625 18.5625 C-16.82138357 16.76390351 -15.01799575 14.96507773 -13.21484375 13.16601562 C-8.81253739 8.77468752 -4.40738286 4.38623271 0 0 Z " fill="#00B4F7" transform="translate(152,181)"/>
<path d="M0 0 C0.66 0.33 1.32 0.66 2 1 C-5.26 8.26 -12.52 15.52 -20 23 C-18.35 23 -16.7 23 -15 23 C-18.68734758 25.45823172 -21.69699971 26.01242616 -26 27 C-20.89551178 20.81865131 -15.31705058 15.20177122 -9.625 9.5625 C-8.69816406 8.64017578 -7.77132812 7.71785156 -6.81640625 6.76757812 C-4.54654154 4.50941375 -2.27436462 2.25363058 0 0 Z " fill="#004479" transform="translate(181,243)"/>
<path d="M0 0 C0.66 0.33 1.32 0.66 2 1 C0.68 2.65 -0.64 4.3 -2 6 C-0.68 6.33 0.64 6.66 2 7 C-3.445 8.485 -3.445 8.485 -9 10 C-2.97321429 2.90178571 -2.97321429 2.90178571 0 0 Z " fill="#003662" transform="translate(164,260)"/>
</svg>
