<?xml version="1.0" encoding="UTF-8"?>
<svg version="1.1" xmlns="http://www.w3.org/2000/svg" width="750" height="750">
<path d="M0 0 C2.9375 2 2.9375 2 5 4 C5 4.66 5 5.32 5 6 C5.99 6.33 6.98 6.66 8 7 C8 7.66 8 8.32 8 9 C9.98 9.99 9.98 9.99 12 11 C12 11.66 12 12.32 12 13 C12.99 13.33 13.98 13.66 15 14 C17.1875 15.9375 17.1875 15.9375 19 18 C19 18.66 19 19.32 19 20 C20.98 20.99 20.98 20.99 23 22 C23 22.66 23 23.32 23 24 C23.99 24.33 24.98 24.66 26 25 C26 25.66 26 26.32 26 27 C27.98 27.99 27.98 27.99 30 29 C30 29.66 30 30.32 30 31 C30.99 31.33 31.98 31.66 33 32 C33 32.66 33 33.32 33 34 C34.32 34.66 35.64 35.32 37 36 C37 36.66 37 37.32 37 38 C37.99 38.33 38.98 38.66 40 39 C42.1875 40.9375 42.1875 40.9375 44 43 C44 43.66 44 44.32 44 45 C45.32 45.66 46.64 46.32 48 47 C48 47.66 48 48.32 48 49 C48.99 49.33 49.98 49.66 51 50 C51 50.66 51 51.32 51 52 C52.32 52.66 53.64 53.32 55 54 C55 54.66 55 55.32 55 56 C55.99 56.33 56.98 56.66 58 57 C58 57.66 58 58.32 58 59 C59.32 59.66 60.64 60.32 62 61 C62 61.66 62 62.32 62 63 C62.99 63.33 63.98 63.66 65 64 C67.1875 65.9375 67.1875 65.9375 69 68 C69 68.66 69 69.32 69 70 C70.32 70.66 71.64 71.32 73 72 C73 72.66 73 73.32 73 74 C73.99 74.33 74.98 74.66 76 75 C76 75.66 76 76.32 76 77 C77.32 77.66 78.64 78.32 80 79 C80 79.66 80 80.32 80 81 C80.99 81.33 81.98 81.66 83 82 C83 82.66 83 83.32 83 84 C84.32 84.66 85.64 85.32 87 86 C87 86.66 87 87.32 87 88 C87.99 88.33 88.98 88.66 90 89 C92.1875 90.9375 92.1875 90.9375 94 93 C94 93.66 94 94.32 94 95 C95.32 95.66 96.64 96.32 98 97 C98 97.66 98 98.32 98 99 C98.99 99.33 99.98 99.66 101 100 C101 100.66 101 101.32 101 102 C102.32 102.66 103.64 103.32 105 104 C105 104.66 105 105.32 105 106 C105.99 106.33 106.98 106.66 108 107 C108 107.66 108 108.32 108 109 C109.32 109.66 110.64 110.32 112 111 C112 111.66 112 112.32 112 113 C112.99 113.33 113.98 113.66 115 114 C117.1875 115.9375 117.1875 115.9375 119 118 C119 118.66 119 119.32 119 120 C120.32 120.66 121.64 121.32 123 122 C123 122.66 123 123.32 123 124 C123.99 124.33 124.98 124.66 126 125 C126 125.66 126 126.32 126 127 C126.598125 127.226875 127.19625 127.45375 127.8125 127.6875 C131.27196197 129.76317718 132.58493607 132.5661428 133.6875 136.375 C134.45757822 142.84365703 134.58877835 149.25350711 130.7421875 154.8203125 C127.52919857 158.70617869 123.87817415 161.7819406 120 165 C119.175 165.99 118.35 166.98 117.5 168 C114.9107857 171.10705716 112.10063514 173.41613738 109 176 C108.175 176.99 107.35 177.98 106.5 179 C103.91294664 182.10446403 101.10278666 184.42534724 98 187 C97.34 187.825 96.68 188.65 96 189.5 C94 192 94 192 91.0625 194.4375 C87.9268956 196.90639631 87.9268956 196.90639631 85.5 200 C82.9107857 203.10705716 80.10063514 205.41613738 77 208 C76.175 208.99 75.35 209.98 74.5 211 C71.91294664 214.10446403 69.10278666 216.42534724 66 219 C65.34 219.825 64.68 220.65 64 221.5 C62 224 62 224 59.0625 226.4375 C55.9268956 228.90639631 55.9268956 228.90639631 53.5 232 C50.9107857 235.10705716 48.10063514 237.41613738 45 240 C44.175 240.99 43.35 241.98 42.5 243 C39.9107857 246.10705716 37.10063514 248.41613738 34 251 C33.175 251.99 32.35 252.98 31.5 254 C28.91294664 257.10446403 26.10278666 259.42534724 23 262 C22.01 263.2375 22.01 263.2375 21 264.5 C19 267 19 267 16.0625 269.4375 C12.9370734 271.89609049 12.9370734 271.89609049 10.5625 274.9375 C6.20909846 280.14034575 1.8503381 284.62993238 -5 286 C-10.75247536 286.48553003 -15.54980813 285.85538447 -21 284 C-21 283.34 -21 282.68 -21 282 C-22.32 281.34 -23.64 280.68 -25 280 C-25 279.34 -25 278.68 -25 278 C-25.99 277.67 -26.98 277.34 -28 277 C-28 276.34 -28 275.68 -28 275 C-29.32 274.34 -30.64 273.68 -32 273 C-32 272.34 -32 271.68 -32 271 C-32.99 270.67 -33.98 270.34 -35 270 C-37.1875 268.0625 -37.1875 268.0625 -39 266 C-39 265.34 -39 264.68 -39 264 C-40.32 263.34 -41.64 262.68 -43 262 C-43 261.34 -43 260.68 -43 260 C-43.99 259.67 -44.98 259.34 -46 259 C-46 258.34 -46 257.68 -46 257 C-47.32 256.34 -48.64 255.68 -50 255 C-50 254.34 -50 253.68 -50 253 C-50.99 252.67 -51.98 252.34 -53 252 C-53 251.34 -53 250.68 -53 250 C-54.98 249.01 -54.98 249.01 -57 248 C-57 247.34 -57 246.68 -57 246 C-57.99 245.67 -58.98 245.34 -60 245 C-62.1875 243.0625 -62.1875 243.0625 -64 241 C-64 240.34 -64 239.68 -64 239 C-65.98 238.01 -65.98 238.01 -68 237 C-68 236.34 -68 235.68 -68 235 C-68.99 234.67 -69.98 234.34 -71 234 C-71 233.34 -71 232.68 -71 232 C-72.98 231.01 -72.98 231.01 -75 230 C-75 229.34 -75 228.68 -75 228 C-75.99 227.67 -76.98 227.34 -78 227 C-78 226.34 -78 225.68 -78 225 C-79.98 224.01 -79.98 224.01 -82 223 C-82 222.34 -82 221.68 -82 221 C-82.99 220.67 -83.98 220.34 -85 220 C-87.1875 218.0625 -87.1875 218.0625 -89 216 C-89 215.34 -89 214.68 -89 214 C-90.32 213.34 -91.64 212.68 -93 212 C-93 211.34 -93 210.68 -93 210 C-93.99 209.67 -94.98 209.34 -96 209 C-96 208.34 -96 207.68 -96 207 C-97.32 206.34 -98.64 205.68 -100 205 C-100 204.34 -100 203.68 -100 203 C-100.99 202.67 -101.98 202.34 -103 202 C-103 201.34 -103 200.68 -103 200 C-104.32 199.34 -105.64 198.68 -107 198 C-107 197.34 -107 196.68 -107 196 C-107.99 195.67 -108.98 195.34 -110 195 C-112.1875 193.0625 -112.1875 193.0625 -114 191 C-114 190.34 -114 189.68 -114 189 C-115.32 188.34 -116.64 187.68 -118 187 C-118 186.34 -118 185.68 -118 185 C-118.99 184.67 -119.98 184.34 -121 184 C-121 183.34 -121 182.68 -121 182 C-122.32 181.34 -123.64 180.68 -125 180 C-125 179.34 -125 178.68 -125 178 C-125.99 177.67 -126.98 177.34 -128 177 C-128 176.34 -128 175.68 -128 175 C-129.32 174.34 -130.64 173.68 -132 173 C-132 172.34 -132 171.68 -132 171 C-132.99 170.67 -133.98 170.34 -135 170 C-137.1875 168.0625 -137.1875 168.0625 -139 166 C-139 165.34 -139 164.68 -139 164 C-140.32 163.34 -141.64 162.68 -143 162 C-143 161.34 -143 160.68 -143 160 C-143.99 159.67 -144.98 159.34 -146 159 C-146 158.34 -146 157.68 -146 157 C-147.32 156.34 -148.64 155.68 -150 155 C-150 154.34 -150 153.68 -150 153 C-150.66 153 -151.32 153 -152 153 C-154.62810898 145.11567307 -154.62810898 138.88432693 -152 131 C-151.34 131 -150.68 131 -150 131 C-149.72671875 130.41089844 -149.4534375 129.82179688 -149.171875 129.21484375 C-146.69679947 124.536951 -142.97934119 120.67722375 -138.875 117.375 C-135.99630746 115.16662576 -135.99630746 115.16662576 -134.125 112.625 C-131.66832045 109.5902782 -128.90987184 107.22654289 -125.953125 104.69140625 C-122.49753444 101.69886482 -119.44419957 98.54670717 -116.5625 95 C-113.93624017 91.92535434 -111.10051632 89.5837636 -108 87 C-107.175 86.01 -106.35 85.02 -105.5 84 C-102.9107857 80.89294284 -100.10063514 78.58386262 -97 76 C-96.175 75.01 -95.35 74.02 -94.5 73 C-91.91294664 69.89553597 -89.10278666 67.57465276 -86 65 C-85.38125 64.21625 -84.7625 63.4325 -84.125 62.625 C-81.66832045 59.5902782 -78.90987184 57.22654289 -75.953125 54.69140625 C-71.49314705 50.82906534 -67.71219854 46.56070106 -64 42 C-62.02 42.495 -62.02 42.495 -60 43 C-60 43.66 -60 44.32 -60 45 C-58.68 45.66 -57.36 46.32 -56 47 C-56 47.66 -56 48.32 -56 49 C-55.401875 49.268125 -54.80375 49.53625 -54.1875 49.8125 C-52.00152146 50.99917406 -50.58667406 52.09599113 -49 54 C-49 54.66 -49 55.32 -49 56 C-48.401875 56.268125 -47.80375 56.53625 -47.1875 56.8125 C-45.00152146 57.99917406 -43.58667406 59.09599113 -42 61 C-42 61.66 -42 62.32 -42 63 C-40.02 63.99 -40.02 63.99 -38 65 C-38 65.66 -38 66.32 -38 67 C-36.515 67.495 -36.515 67.495 -35 68 C-35 68.66 -35 69.32 -35 70 C-33.02 70.99 -33.02 70.99 -31 72 C-31 72.66 -31 73.32 -31 74 C-30.34 74 -29.68 74 -29 74 C-29.13019531 74.82242188 -29.26039063 75.64484375 -29.39453125 76.4921875 C-30.40670613 84.68418233 -29.95694371 90.24396251 -25 97 C-22.61271801 99.52120269 -20.12479861 101.43760069 -17 103 C-16.86102905 113.49183433 -16.75439393 123.98345003 -16.68912697 134.476017 C-16.65780298 139.34811135 -16.61531104 144.21957644 -16.54736328 149.09130859 C-16.48220823 153.79218483 -16.446302 158.49245558 -16.43073654 163.19374847 C-16.41964318 164.98799932 -16.39797988 166.78221672 -16.36561966 168.57621002 C-16.32210492 171.08832084 -16.31606341 173.59792499 -16.31884766 176.11035156 C-16.297276 176.85338028 -16.27570435 177.596409 -16.253479 178.36195374 C-16.2784729 180.44390869 -16.2784729 180.44390869 -17 184 C-19.90585327 186.35247803 -19.90585327 186.35247803 -23 188 C-27.02771917 192.14279686 -29.87913139 197.21041345 -30.06640625 203.08203125 C-29.64391657 207.59146195 -28.15128708 211.07156272 -26 215 C-26 215.66 -26 216.32 -26 217 C-25.34 217 -24.68 217 -24 217 C-23 218 -22 219 -21 220 C-17.07705393 222.82201272 -14.30772734 223.40869902 -9.5 223.375 C-8.3965625 223.38273438 -7.293125 223.39046875 -6.15625 223.3984375 C-2.70445044 222.96269053 -0.86299643 221.90530396 2 220 C2.66 220 3.32 220 4 220 C4.33 219.01 4.66 218.02 5 217 C5.66 217 6.32 217 7 217 C7.309375 216.21625 7.61875 215.4325 7.9375 214.625 C9 212 9 212 10 210 C11.04042084 200.12701191 11.04042084 200.12701191 7.25 191.3125 C5.55004198 189.3764367 4.19813912 188.10647061 1.92193604 186.88334656 C0 185 0 185 -0.48101807 181.60212708 C-0.49261851 180.17332825 -0.48196704 178.744248 -0.45410156 177.31567383 C-0.45468567 176.5349501 -0.45526978 175.75422638 -0.45587158 174.94984436 C-0.45308411 172.36845484 -0.42196213 169.7882191 -0.390625 167.20703125 C-0.38316494 165.4177056 -0.3774709 163.62837178 -0.37347412 161.83903503 C-0.35819924 157.12880915 -0.31890162 152.41907641 -0.2746582 147.70904541 C-0.23374536 142.90310335 -0.21547164 138.09708163 -0.1953125 133.29101562 C-0.15240904 123.86046038 -0.0841354 114.43027119 0 105 C5.91399336 108.47483407 5.91399336 108.47483407 8 111 C8 111.66 8 112.32 8 113 C9.32 113.66 10.64 114.32 12 115 C12 115.66 12 116.32 12 117 C12.99 117.33 13.98 117.66 15 118 C15 118.66 15 119.32 15 120 C16.32 120.66 17.64 121.32 19 122 C19 122.66 19 123.32 19 124 C19.598125 124.268125 20.19625 124.53625 20.8125 124.8125 C22.99847854 125.99917406 24.41332594 127.09599113 26 129 C26 129.66 26 130.32 26 131 C26.639375 131.268125 27.27875 131.53625 27.9375 131.8125 C30 133 30 133 31 136 C30.814375 137.19625 30.62875 138.3925 30.4375 139.625 C29.68583463 145.16091391 30.26002854 150.21496829 33.26171875 155.01953125 C37.34300211 160.10774541 41.42355416 162.40868456 47.8125 163.875 C52.59741458 164.31499215 56.73734153 163.15573377 61 161 C63.87685203 158.45911321 63.87685203 158.45911321 66 156 C66.66 156 67.32 156 68 156 C68.185625 155.0409375 68.185625 155.0409375 68.375 154.0625 C69 151 69 151 69.65234375 149.015625 C71.6605725 142.31360715 70.08318142 138.11356863 67 132 C66.6596875 131.26652344 66.319375 130.53304687 65.96875 129.77734375 C64.67054195 127.39555075 63.51170203 126.97677301 61 126 C60.08444336 125.63583984 59.16888672 125.27167969 58.22558594 124.89648438 C54.71008116 123.9194231 52.70365724 124.22702631 49.140625 124.78125 C41.29077739 124.88835423 37.31932758 120.98899941 31.93933105 115.81420898 C30.5576283 114.4325884 29.187844 113.03895652 27.82958984 111.63427734 C25.75876119 109.50899159 23.62417569 107.46896142 21.47265625 105.42578125 C14.9464526 98.9854925 9.86406536 93.81779945 9.76953125 84.2734375 C9.88325073 82.354104 9.88325073 82.354104 9.99926758 80.39599609 C10.00026019 75.793599 8.36498246 73.62301688 5.27734375 70.3828125 C4 69 4 69 4 67 C-1.48785886 64.96026485 -5.49732686 63.85523326 -11.30859375 64.890625 C-18.14261499 64.97498261 -21.52881674 61.64795104 -26.20703125 57.140625 C-28.38320134 54.9733459 -30.51944641 52.77712196 -32.63208008 50.54785156 C-34.82195566 48.24003508 -37.05478815 45.9816279 -39.29882812 43.7265625 C-40.70843896 42.28389273 -42.11543881 40.83866615 -43.51953125 39.390625 C-44.18700882 38.7113092 -44.85448639 38.03199341 -45.54219055 37.33209229 C-46.14419785 36.69173035 -46.74620514 36.05136841 -47.36645508 35.39160156 C-48.16820915 34.55221039 -48.16820915 34.55221039 -48.98616028 33.69586182 C-50 32 -50 32 -49.80522156 29.9364624 C-48.56590724 26.95605838 -46.31890377 25.21349905 -44 23 C-43.195625 22.01 -42.39125 21.02 -41.5625 20 C-38.93624017 16.92535434 -36.10051632 14.5837636 -33 12 C-31.32932867 10.00334402 -29.66247014 8.00348966 -28 6 C-23.47368421 2 -23.47368421 2 -21 2 C-21 1.34 -21 0.68 -21 0 C-13.58765284 -2.42035826 -7.48105274 -2.77076027 0 0 Z " fill="#EE3C2D" transform="translate(185,233)"/>
<path d="M0 0 C12.49582566 1.72646183 25.16016901 1.49681373 37.75 1.65234375 C40.32683493 1.69060555 42.90365819 1.72966177 45.48046875 1.76953125 C51.73691208 1.86609372 57.99325886 1.94636413 64.25 2.02734375 C64.25 10.27734375 64.25 18.52734375 64.25 27.02734375 C52.865 28.01734375 52.865 28.01734375 41.25 29.02734375 C42.384375 31.17234375 43.51875 33.31734375 44.6875 35.52734375 C47.37445176 40.80667046 49.15067941 45.06810848 49.25 51.02734375 C49.28609375 51.78015625 49.3221875 52.53296875 49.359375 53.30859375 C49.84835627 68.76040204 45.60119973 79.69306918 35.25 91.02734375 C19.78452359 104.0460433 -0.20264758 106.31294964 -19.75 105.02734375 C-23.80166958 104.54899325 -27.76889981 103.91733022 -31.75 103.02734375 C-32.17925781 104.14689453 -32.17925781 104.14689453 -32.6171875 105.2890625 C-34.04770415 108.74696654 -35.85373854 111.80369926 -37.75 115.02734375 C-37.01476608 115.01882385 -36.27953217 115.01030396 -35.52201843 115.00152588 C-28.46214329 114.95529082 -21.49384243 115.21037562 -14.45703125 115.76171875 C-13.42672287 115.84101624 -12.39641449 115.92031372 -11.33488464 116.00201416 C-9.17088433 116.17090676 -7.0070906 116.34246609 -4.84350586 116.51660156 C-1.58857629 116.77527146 1.66740937 117.0148218 4.92382812 117.25390625 C44.09523059 120.28829884 44.09523059 120.28829884 56.25 134.02734375 C63.4059415 145.52290323 63.85832552 158.50031995 61.63671875 171.66015625 C58.29586867 182.93368559 50.07887841 191.82545991 40.25 198.02734375 C36.00633754 200.00978461 31.69737292 201.56893525 27.25 203.02734375 C26.5895166 203.27250732 25.9290332 203.5176709 25.24853516 203.77026367 C19.15833639 205.97044848 13.16795577 206.96279191 6.75 207.71484375 C5.69337158 207.84076904 4.63674316 207.96669434 3.5480957 208.09643555 C-11.07559053 209.73609125 -25.02001634 209.13507462 -39.59619141 207.29638672 C-41.53458112 207.0542528 -43.47616163 206.83799908 -45.41796875 206.625 C-56.86549779 205.18893005 -69.3032504 201.01132249 -77.34375 192.30078125 C-83.40351151 184.3033053 -83.42898383 175.75248137 -82.75 166.02734375 C-80.98239028 157.62797199 -75.29534555 151.27509974 -69.75 145.02734375 C-70.65685547 144.62322266 -70.65685547 144.62322266 -71.58203125 144.2109375 C-75.66743096 141.98053009 -78.29714266 138.38591576 -79.75 134.02734375 C-79.89584712 131.92658426 -79.97085655 129.82045826 -80 127.71484375 C-80.02578125 126.60496094 -80.0515625 125.49507813 -80.078125 124.3515625 C-79.49287581 118.42243083 -76.64493444 114.55798063 -72.6875 110.27734375 C-71.511875 109.00503906 -71.511875 109.00503906 -70.3125 107.70703125 C-66.19888606 103.40529472 -61.99855645 99.19607346 -57.75 95.02734375 C-58.471875 94.40085937 -59.19375 93.774375 -59.9375 93.12890625 C-60.865625 92.31164062 -61.79375 91.494375 -62.75 90.65234375 C-63.678125 89.84023438 -64.60625 89.028125 -65.5625 88.19140625 C-66.284375 87.47726562 -67.00625 86.763125 -67.75 86.02734375 C-67.75 85.36734375 -67.75 84.70734375 -67.75 84.02734375 C-68.74 83.69734375 -69.73 83.36734375 -70.75 83.02734375 C-72.06640625 80.91796875 -72.06640625 80.91796875 -73.3125 78.27734375 C-73.72628906 77.41625 -74.14007813 76.55515625 -74.56640625 75.66796875 C-80.45555496 62.52914191 -80.54007313 46.09569892 -75.8671875 32.44921875 C-73.8512987 27.78251554 -71.34941194 23.39064236 -68.75 19.02734375 C-68.09 19.02734375 -67.43 19.02734375 -66.75 19.02734375 C-66.49734375 18.43695313 -66.2446875 17.8465625 -65.984375 17.23828125 C-61.31881438 8.88161254 -50.27454592 4.99571242 -41.75 2.02734375 C-38.09745657 1.09557247 -34.48779453 0.4908062 -30.75 0.02734375 C-29.533125 -0.17890625 -28.31625 -0.38515625 -27.0625 -0.59765625 C-18.00980209 -1.61170591 -8.98833584 -1.3187056 0 0 Z M-33.75 37.02734375 C-34.13929688 37.54554688 -34.52859375 38.06375 -34.9296875 38.59765625 C-38.99008843 45.06629497 -38.79139451 52.67446736 -37.75 60.02734375 C-35.35934011 65.95487034 -31.49153145 70.15657803 -25.75 73.02734375 C-17.23392307 75.46050859 -6.69348526 75.08916714 1.25 71.02734375 C4.10393478 68.92346611 4.10393478 68.92346611 6.25 66.02734375 C6.71535156 65.48464844 7.18070313 64.94195312 7.66015625 64.3828125 C12.16996678 58.41579299 12.22758308 52.26869989 11.25 45.02734375 C9.40022123 38.88765252 5.75232858 33.93146178 0.05859375 30.8359375 C-11.13748882 25.80733704 -25.83326548 26.47169772 -33.75 37.02734375 Z M-44.4050293 155.39086914 C-48.00760783 159.60684733 -48.89755773 164.58878729 -48.75 170.02734375 C-47.49969797 173.77824984 -46.12766082 175.25610951 -42.69897461 177.17553711 C-34.43543966 180.51587315 -26.55274021 180.67301588 -17.77124023 180.60375977 C-15.31942018 180.58988292 -12.87142236 180.62407689 -10.41992188 180.66210938 C-0.24095214 180.71295981 9.53101036 180.10532259 17.53491211 172.99853516 C19.57719973 170.65128529 19.79158397 169.53685954 19.75 166.46484375 C19.7603125 165.70042969 19.770625 164.93601562 19.78125 164.1484375 C19.04054813 161.19107635 17.81516157 160.62980367 15.25 159.02734375 C4.94827335 155.72036405 -5.84454359 155.33763809 -16.5625 154.83984375 C-18.10877576 154.75813593 -19.65500054 154.67545745 -21.20117188 154.59179688 C-25.38311544 154.37069595 -29.56553046 154.19380524 -33.75 154.02734375 C-34.7301709 153.97698975 -35.7103418 153.92663574 -36.72021484 153.87475586 C-40.86273691 153.58680207 -40.86273691 153.58680207 -44.4050293 155.39086914 Z " fill="#352701" transform="translate(455.75,301.97265625)"/>
<path d="M0 0 C9.24 0 18.48 0 28 0 C28.495 20.295 28.495 20.295 29 41 C48.305 41.495 48.305 41.495 68 42 C68 51.57 68 61.14 68 71 C54.8 71 41.6 71 28 71 C28.1200376 83.423945 28.1200376 83.423945 28.2578125 95.84765625 C28.31798439 100.91906901 28.3761344 105.99044559 28.421875 111.06201172 C28.45890719 115.15348599 28.50531437 119.24475881 28.55806351 123.33605957 C28.57651261 124.8924199 28.59165509 126.44882325 28.60334396 128.00524902 C28.6721956 136.86076697 29.18765631 144.56296893 32 153 C43.4724852 159.35037335 56.24331722 155.05510086 68 152 C70.70723867 157.51116444 72.70159039 162.96666826 74.3125 168.875 C74.49586914 169.52927979 74.67923828 170.18355957 74.86816406 170.85766602 C75.72565134 174.12144526 76.09067513 175.72797461 75 179 C67.9301789 183.82951415 58.25306564 185.17184288 50 187 C49.2169751 187.18095215 48.4339502 187.3619043 47.62719727 187.54833984 C31.94291752 190.9777889 13.62578864 190.7947471 -0.625 182.625 C-7.02201859 178.05570101 -10.25960788 172.18006669 -13 165 C-13.51565018 163.71348038 -13.51565018 163.71348038 -14.04171753 162.40097046 C-15.21458405 158.23843538 -15.26562715 154.53955626 -15.22705078 150.24072266 C-15.22734283 149.38153229 -15.22763489 148.52234192 -15.22793579 147.63711548 C-15.22654853 144.8126598 -15.21101584 141.98847179 -15.1953125 139.1640625 C-15.19158022 137.19965763 -15.18873426 135.2352509 -15.18673706 133.27084351 C-15.17911753 128.11202819 -15.15948345 122.95332631 -15.1373291 117.79455566 C-15.11683447 112.52581313 -15.10772761 107.25705219 -15.09765625 101.98828125 C-15.07623597 91.65879643 -15.04106751 81.32942541 -15 71 C-21.93 71 -28.86 71 -36 71 C-36 62.09 -36 53.18 -36 44 C-31.71 43.01 -27.42 42.02 -23 41 C-13.81432013 36.62078053 -8.54188897 31.31597412 -4.71875 21.81640625 C-2.76354434 15.88794336 -1.53284763 10.15914 -1.17578125 3.92578125 C-1 2 -1 2 0 0 Z " fill="#352701" transform="translate(643,257)"/>
<path d="M0 0 C19.47 0 38.94 0 59 0 C59 39.27 59 78.54 59 119 C65.93 119.495 65.93 119.495 73 120 C74.98 120.495 74.98 120.495 77 121 C77 128.92 77 136.84 77 145 C50.6 145 24.2 145 -3 145 C-3 137.08 -3 129.16 -3 121 C4.3125 120.125 4.3125 120.125 6.6027832 119.86376953 C10.09569967 119.42124925 12.02212075 118.98525284 15 117 C15.30226246 114.29492897 15.40944217 111.81760216 15.38818359 109.10961914 C15.39606903 107.88745949 15.39606903 107.88745949 15.40411377 106.64060974 C15.41735223 103.93859872 15.40856146 101.2371736 15.3984375 98.53515625 C15.40045733 96.66189968 15.403368 94.78864388 15.40713501 92.91539001 C15.41156373 88.9852654 15.40511046 85.05534505 15.39111328 81.12524414 C15.37403284 76.08316032 15.38385186 71.04155594 15.40183067 65.99948978 C15.41266379 62.12963744 15.40922414 58.25989901 15.4014473 54.39004326 C15.39944337 52.53086732 15.4019113 50.6716811 15.40888596 48.81251717 C15.4164914 46.21465743 15.40490877 43.61757698 15.38818359 41.01977539 C15.39425629 40.24824127 15.40032898 39.47670715 15.40658569 38.68179321 C15.38320749 34.64057925 15.38320749 34.64057925 13.66738892 31.08323669 C11.0762572 29.3998808 8.33506311 28.43042522 5.4375 27.375 C-0.94936709 25.02531646 -0.94936709 25.02531646 -3 24 C-2.88361873 21.87451055 -2.75637282 19.74961554 -2.625 17.625 C-2.55539062 16.44164062 -2.48578125 15.25828125 -2.4140625 14.0390625 C-1.92982375 9.31545054 -0.93123155 4.65615774 0 0 Z " fill="#352701" transform="translate(534,301)"/>
<path d="M0 0 C5.75553166 5.51516143 6.44668308 11.52696969 6.625 19.1875 C6.59688927 27.03946089 4.87114346 32.97973517 -0.296875 38.95703125 C-6.70320724 44.93283041 -15.0300019 44.67588117 -23.2578125 44.578125 C-28.51582432 44.1920075 -32.19293715 42.65353143 -36.875 40.3125 C-36.875 39.6525 -36.875 38.9925 -36.875 38.3125 C-37.48923828 38.05597656 -38.10347656 37.79945313 -38.73632812 37.53515625 C-42.36906865 35.45835664 -43.54484698 32.16398784 -44.875 28.3125 C-45.3937538 25.28554482 -45.43776542 22.37754479 -45.375 19.3125 C-45.39046875 18.55710938 -45.4059375 17.80171875 -45.421875 17.0234375 C-45.37660385 10.43648459 -43.38007422 5.40209154 -39.234375 0.2890625 C-28.58469241 -8.65460298 -11.0009781 -8.41116451 0 0 Z " fill="#352701" transform="translate(586.875,236.6875)"/>
</svg>
