<?xml version="1.0" encoding="UTF-8"?>
<svg version="1.1" xmlns="http://www.w3.org/2000/svg" width="500" height="500">
<path d="M0 0 C117.48 0 234.96 0 356 0 C345.38106286 121.52783616 345.38106286 121.52783616 341.125 169.42578125 C341.00302658 170.79877687 340.88105677 172.1717728 340.75909042 173.54476905 C339.61229434 186.45424741 338.46502464 199.3636836 337.31614685 212.27297688 C337.06053054 215.14528156 336.80491923 218.01758669 336.54931641 220.88989258 C336.48588409 221.60269991 336.42245178 222.31550724 336.35709727 223.0499148 C335.30483898 234.87552047 334.25602833 246.70142966 333.20840883 258.52744708 C332.11390754 270.8820233 331.01636765 283.2363266 329.91581345 295.59036511 C329.30520718 302.44546783 328.69592211 309.3006821 328.09014893 316.15621376 C327.52900657 322.50661563 326.96379401 328.85664654 326.39570045 335.20643044 C326.18827521 337.53247075 325.98225674 339.85863699 325.77771568 342.18493271 C325.49983747 345.34294006 325.2170084 348.50046469 324.93286133 351.65791321 C324.85242144 352.58569385 324.77198154 353.5134745 324.68910408 354.46936971 C324.61254522 355.30854788 324.53598637 356.14772606 324.45710754 357.01233387 C324.39249738 357.73948371 324.32788721 358.46663355 324.26131916 359.21581823 C324 361 324 361 323 363 C321.05758667 363.737854 321.05758667 363.737854 318.44873047 364.43847656 C316.9650296 364.84346626 316.9650296 364.84346626 315.45135498 365.25663757 C314.35107971 365.54835342 313.25080444 365.84006927 312.1171875 366.140625 C310.95600403 366.45574539 309.79482056 366.77086578 308.59844971 367.09553528 C306.04439049 367.78781997 303.48974612 368.4772202 300.93365479 369.16189575 C294.68597848 370.83543395 288.44376167 372.52913732 282.20151901 374.22281075 C280.71220833 374.62679144 279.22280927 375.03044648 277.73332596 375.43379021 C265.90340744 378.63820994 254.09726847 381.92218481 242.30179977 385.25107956 C239.58973728 386.01625499 236.87728692 386.78003945 234.16470337 387.54336548 C232.36907607 388.0487546 230.57345228 388.55415617 228.77783203 389.05957031 C227.4519126 389.43276052 227.4519126 389.43276052 226.09920692 389.81348991 C221.67642416 391.05915948 217.25483042 392.30881069 212.83538818 393.56628418 C208.63965769 394.76002757 204.44130038 395.94405713 200.24089813 397.12125206 C198.68901694 397.55817446 197.13816256 397.99876332 195.58844757 398.44330788 C193.4536399 399.05526757 191.31555917 399.65417322 189.17626953 400.25024414 C187.97761261 400.5897963 186.77895569 400.92934845 185.54397583 401.27919006 C178.51701153 402.70840571 172.78407289 401.9924963 165.96240234 400.03491211 C165.19843328 399.82464323 164.43446423 399.61437435 163.64734459 399.39773369 C161.12407055 398.70063319 158.60512728 397.98904939 156.0859375 397.27734375 C154.2922636 396.77877422 152.49833262 396.28112875 150.7041626 395.78434753 C145.91294149 394.45500738 141.12529733 393.11320368 136.3383255 391.76865387 C131.40107566 390.38385348 126.46092573 389.00948139 121.52099609 387.63427734 C115.60055941 385.98534789 109.68049834 384.33511166 103.76199341 382.67926025 C92.94196581 379.65229244 82.11657326 376.64703755 71.27813339 373.68665504 C66.87625232 372.48380085 62.47581644 371.27566469 58.07501221 370.06887817 C55.78036778 369.4410935 53.48508027 368.81565454 51.18914795 368.19259644 C48.0745875 367.34654352 44.96280769 366.49096173 41.8515625 365.6328125 C40.50182343 365.27040718 40.50182343 365.27040718 39.12481689 364.90068054 C37.06540977 364.32762352 35.02907875 363.67260054 33 363 C31.68131271 360.36262542 31.63908376 358.09744023 31.37719631 355.15285492 C31.26373661 353.89956721 31.1502769 352.6462795 31.03337902 351.35501337 C30.91048045 349.95132225 30.78765743 348.54762452 30.66490173 347.1439209 C30.53239295 345.66278568 30.39952664 344.18168241 30.26633173 342.70060873 C29.90006478 338.61614508 29.53891142 334.53124264 29.17855871 330.44625354 C28.78955081 326.04649285 28.3958582 321.64715116 28.00273132 317.24775696 C27.23282546 308.62357669 26.46725169 299.99901699 25.70307606 291.3743273 C24.81381092 281.33991074 23.92010595 271.30589114 23.02615578 261.27189106 C21.43173882 243.3740954 19.84109602 225.47596636 18.25268555 207.57763672 C16.70979869 190.19233508 15.16470877 172.80723129 13.61694336 155.42236328 C13.52162222 154.35168812 13.42630109 153.28101296 13.32809144 152.1778931 C12.94498988 147.87484122 12.56188322 143.5717898 12.17876732 139.26873919 C10.61703416 121.72713586 9.05699132 104.18538214 7.49724126 86.64360237 C7.14115401 82.63888588 6.78500316 78.63417505 6.42879939 74.62946892 C5.49263599 64.1040675 4.55702341 53.57861762 3.62305348 43.05302131 C3.23665003 38.69839835 2.84997766 34.34379975 2.46255493 29.98926735 C2.10839482 26.00843403 1.75505085 22.02752918 1.40238232 18.04656345 C1.27418648 16.60107874 1.14569059 15.15562061 1.01687562 13.71019095 C0.84276061 11.75591438 0.66982605 9.80153275 0.49696255 7.84714508 C0.40029622 6.75843188 0.30362988 5.66971868 0.20403427 4.54801416 C0 2 0 2 0 0 Z " fill="#E44D26" transform="translate(72,98)"/>
<path d="M0 0 C73.26 0 146.52 0 222 0 C221.67 4.29 221.34 8.58 221 13 C220.83213033 15.24860843 220.66514498 17.49728357 220.5 19.74609375 C220.33333333 21.9765625 220.16666667 24.20703125 220 26.4375 C219.9175 27.56865234 219.835 28.69980469 219.75 29.86523438 C219.6675 30.96029297 219.585 32.05535156 219.5 33.18359375 C219.4278125 34.15868896 219.355625 35.13378418 219.28125 36.13842773 C218.98931753 39.10868854 218.49066072 42.05603568 218 45 C162.23 45 106.46 45 49 45 C49.99 55.56 50.98 66.12 52 77 C52 81.29 52 85.58 52 90 C105.46 90 158.92 90 214 90 C212.23747737 111.73777913 210.45714356 133.44727024 208.37994385 155.15307617 C207.72399492 162.01035044 207.07645637 168.86841713 206.4296875 175.7265625 C206.36662289 176.39461662 206.30355827 177.06267075 206.23858261 177.75096893 C204.72228229 193.82526766 203.31951079 209.90840499 202 226 C198.71951673 227.10714858 195.44806255 228.1954518 192.109375 229.11328125 C191.40941406 229.30664062 190.70945312 229.5 189.98828125 229.69921875 C189.24964844 229.90160156 188.51101563 230.10398437 187.75 230.3125 C186.14061349 230.75646869 184.53123882 231.20048031 182.921875 231.64453125 C181.69500977 231.98218506 181.69500977 231.98218506 180.44335938 232.32666016 C176.6272027 233.37831484 172.81367532 234.43938959 169 235.5 C167.50001401 235.9167171 166.00001397 236.33338364 164.5 236.75 C163.7575 236.95625 163.015 237.1625 162.25 237.375 C160 238 157.75 238.625 155.5 239.25 C154.75693604 239.45641113 154.01387207 239.66282227 153.24829102 239.87548828 C151.75399696 240.29056095 150.25969364 240.70560022 148.76538086 241.12060547 C144.14044819 242.40511278 139.51583949 243.69077693 134.89160156 244.9777832 C133.35609201 245.40447459 131.8202907 245.83011764 130.28417969 246.25463867 C127.06245305 247.1450782 123.84575944 248.04496444 120.63671875 248.98046875 C119.68410156 249.25503906 118.73148437 249.52960938 117.75 249.8125 C116.96109375 250.04582031 116.1721875 250.27914062 115.359375 250.51953125 C110.36616056 251.53636134 106.33884346 251.00465394 101.5625 249.375 C95.2835643 247.34442676 88.95370622 245.64156456 82.5625 244 C75.3220016 242.13288064 68.10669366 240.21957337 60.92578125 238.1328125 C55.39909791 236.52873004 49.85428995 234.98837707 44.3125 233.4375 C43.26658691 233.14431885 42.22067383 232.8511377 41.14306641 232.54907227 C40.1226123 232.26346436 39.1021582 231.97785645 38.05078125 231.68359375 C37.05127441 231.40370605 36.05176758 231.12381836 35.02197266 230.83544922 C31.04669446 229.73645084 27.06023683 228.68035817 23.07104492 227.63305664 C21 227 21 227 20 226 C19.76571535 224.54501924 19.59178934 223.08024246 19.44335938 221.61401367 C19.29815857 220.20940132 19.29815857 220.20940132 19.15002441 218.77641296 C19.04895386 217.75062637 18.9478833 216.72483978 18.84375 215.66796875 C18.7365564 214.60701492 18.62936279 213.5460611 18.5189209 212.45295715 C18.29148617 210.18915576 18.06634061 207.92512344 17.84326172 205.66088867 C17.50788936 202.2673307 17.16273233 198.87487711 16.81640625 195.48242188 C16.5957498 193.27349779 16.37568163 191.06451484 16.15625 188.85546875 C16.05517944 187.86814255 15.95410889 186.88081635 15.84997559 185.86357117 C14.88180152 175.89884202 14.50204792 166.04095839 14 156 C28.52 156 43.04 156 58 156 C61.55353075 181.31890661 61.55353075 181.31890661 61 192 C61.83917969 192.14695312 62.67835938 192.29390625 63.54296875 192.4453125 C71.40838762 193.91217518 79.06353784 195.77363788 86.75 198 C87.65556641 198.26127686 88.56113281 198.52255371 89.49414062 198.79174805 C93.15354009 199.85505157 96.80126442 200.93692011 100.43359375 202.08984375 C110.34206929 205.13968658 118.03313493 203.14650624 127.74291992 200.16137695 C134.4212528 198.11743547 141.1614926 196.37670727 147.9375 194.6875 C148.99855957 194.42106689 150.05961914 194.15463379 151.15283203 193.88012695 C158.73878925 192 158.73878925 192 161 192 C161 186.72 161 181.44 161 176 C162.32 162.14 163.64 148.28 165 134 C114.18 134 63.36 134 11 134 C10.01 121.13 9.02 108.26 8 95 C7.12785259 85.10946066 7.12785259 85.10946066 6.20124245 75.22476578 C5.94117754 72.5311054 5.6860617 69.83700666 5.43180847 67.14279175 C4.80398833 60.49841143 4.16943744 53.85467985 3.53363037 47.21105957 C2.9854933 41.48204307 2.4406965 35.75272956 1.90064049 30.0229454 C1.65133345 27.39209376 1.39716051 24.76174295 1.14277649 22.13137817 C0.99051526 20.52006426 0.8384989 18.90872718 0.68676758 17.29736328 C0.6166748 16.586828 0.54658203 15.87629272 0.47436523 15.14422607 C0.00043844 10.0298182 0 5.1934504 0 0 Z " fill="#FEFEFE" transform="translate(139,172)"/>
<path d="M0 0 C47.85 0 95.7 0 145 0 C143.85308332 13.76300019 143.85308332 13.76300019 143.23486328 20.55834961 C143.16436358 21.33740567 143.09386389 22.11646173 143.02122784 22.91912556 C142.86841333 24.60751956 142.71542085 26.29589745 142.5622654 27.98426056 C142.1306724 32.74355895 141.70089721 37.50302175 141.27075195 42.26245117 C141.17860381 43.28162943 141.08645567 44.30080769 140.99151516 45.35087013 C138.01451344 78.27763706 135.05982698 111.2062656 132.16796875 144.140625 C132.10893859 144.8128814 132.04990844 145.4851378 131.98908949 146.17776561 C131.33353774 153.64409496 130.67855679 161.11047435 130.02380371 168.57687378 C123.43930113 243.6624409 123.43930113 243.6624409 120.56222153 274.84463882 C120.37758784 276.84693568 120.19362617 278.84929447 120.00967407 280.85165405 C119.68317281 284.39871141 119.35402025 287.94550848 119.0234375 291.4921875 C118.93232193 292.48051071 118.84120636 293.46883392 118.74732971 294.48710632 C118.28937471 299.34974149 117.74040366 304.17203749 117 309 C100.43328086 313.78823997 83.86871204 318.56136597 67.1875 322.9375 C52.92224997 326.6840374 38.7662374 330.77881415 24.61048889 334.9165802 C18.9377399 336.573375 13.26482805 338.22965386 7.57421875 339.82421875 C6.74881592 340.05584717 5.92341309 340.28747559 5.07299805 340.52612305 C3 341 3 341 0 341 C-0.33 325.82 -0.66 310.64 -1 295 C9.9375 291.9375 9.9375 291.9375 13.63793945 290.90234375 C19.23307332 289.33701071 24.82704938 287.76782495 30.41796875 286.1875 C41.62926008 283.02392214 52.85833257 279.96995234 64.140625 277.06933594 C70.31554604 275.47124898 76.40866273 273.73170813 82.4765625 271.76171875 C84.97086583 271.00879437 87.44371363 270.4937251 90 270 C90.15913628 268.24950096 90.15913628 268.24950096 90.32148743 266.46363831 C94.9284668 215.78686525 94.9284668 215.78686525 95.23355293 212.43102455 C95.43561898 210.20822695 95.63765941 207.98542702 95.839674 205.76262474 C96.33669696 200.29413822 96.83415122 194.82569163 97.33255005 189.35733032 C98.20712693 179.75712407 99.07744214 170.1566326 99.92724609 160.55419922 C100.13174396 158.25635452 100.33648742 155.95853186 100.54134178 153.66071892 C100.72455597 151.59404057 100.90437812 149.52708612 101.08406067 147.46009827 C101.24584053 145.6466819 101.24584053 145.6466819 101.41088867 143.79663086 C101.5015007 142.76324081 101.59211273 141.72985077 101.68547058 140.66514587 C102 138 102 138 103 134 C49.54 134 -3.92 134 -59 134 C-62 99 -62 99 -62 89 C-6.23 89 49.54 89 107 89 C107.33 82.07 107.66 75.14 108 68 C108.99 60.08 109.98 52.16 111 44 C74.37 44 37.74 44 0 44 C0 29.48 0 14.96 0 0 Z " fill="#F16529" transform="translate(250,128)"/>
<path d="M0 0 C73.26 0 146.52 0 222 0 C221.67 4.29 221.34 8.58 221 13 C220.83213033 15.24860843 220.66514498 17.49728357 220.5 19.74609375 C220.33333333 21.9765625 220.16666667 24.20703125 220 26.4375 C219.9175 27.56865234 219.835 28.69980469 219.75 29.86523438 C219.6675 30.96029297 219.585 32.05535156 219.5 33.18359375 C219.4278125 34.15868896 219.355625 35.13378418 219.28125 36.13842773 C218.98931753 39.10868854 218.49066072 42.05603568 218 45 C162.23 45 106.46 45 49 45 C49.99 55.56 50.98 66.12 52 77 C52 81.29 52 85.58 52 90 C71.47 90 90.94 90 111 90 C111 104.52 111 119.04 111 134 C78 134 45 134 11 134 C10.01 121.13 9.02 108.26 8 95 C7.12785259 85.10946066 7.12785259 85.10946066 6.20124245 75.22476578 C5.94117754 72.5311054 5.6860617 69.83700666 5.43180847 67.14279175 C4.80398833 60.49841143 4.16943744 53.85467985 3.53363037 47.21105957 C2.9854933 41.48204307 2.4406965 35.75272956 1.90064049 30.0229454 C1.65133345 27.39209376 1.39716051 24.76174295 1.14277649 22.13137817 C0.99051526 20.52006426 0.8384989 18.90872718 0.68676758 17.29736328 C0.6166748 16.586828 0.54658203 15.87629272 0.47436523 15.14422607 C0.00043844 10.0298182 0 5.1934504 0 0 Z " fill="#EBE9E8" transform="translate(139,172)"/>
<path d="M0 0 C14.52 0 29.04 0 44 0 C47.55353075 25.31890661 47.55353075 25.31890661 47 36 C47.83917969 36.14695312 48.67835938 36.29390625 49.54296875 36.4453125 C60.92208469 38.56746274 71.90245836 41.73695577 83 45 C87.62 46.32 92.24 47.64 97 49 C97 64.18 97 79.36 97 95 C91.33023031 94.05503838 85.92389162 92.76974738 80.375 91.3125 C79.36171631 91.04775879 78.34843262 90.78301758 77.30444336 90.51025391 C69.84503987 88.53931827 62.4588507 86.37582116 55.08300781 84.11499023 C48.6831046 82.16660668 42.2460296 80.51112098 35.74609375 78.93359375 C30.88831429 77.72294798 26.08733418 76.34524986 21.28125 74.9453125 C17.20760838 73.77171575 13.11318623 72.68505158 9.01171875 71.61328125 C7 71 7 71 6 70 C5.76571535 68.54501924 5.59178934 67.08024246 5.44335938 65.61401367 C5.34655884 64.67760544 5.2497583 63.7411972 5.15002441 62.77641296 C4.99841858 61.23773308 4.99841858 61.23773308 4.84375 59.66796875 C4.7365564 58.60701492 4.62936279 57.5460611 4.5189209 56.45295715 C4.29148617 54.18915576 4.06634061 51.92512344 3.84326172 49.66088867 C3.50788936 46.2673307 3.16273233 42.87487711 2.81640625 39.48242188 C2.5957498 37.27349779 2.37568163 35.06451484 2.15625 32.85546875 C2.05517944 31.86814255 1.95410889 30.88081635 1.84997559 29.86357117 C0.88180152 19.89884202 0.50204792 10.04095839 0 0 Z " fill="#EAE9E9" transform="translate(153,328)"/>
<path d="M0 0 C36.3 0 72.6 0 110 0 C110 13.51508845 110 13.51508845 109.59765625 18.68359375 C109.51193359 19.79541016 109.42621094 20.90722656 109.33789062 22.05273438 C109.24701172 23.16970703 109.15613281 24.28667969 109.0625 25.4375 C108.97548828 26.58154297 108.88847656 27.72558594 108.79882812 28.90429688 C108.41927016 33.71484267 107.9488775 38.2556125 107 43 C71.69 43 36.38 43 0 43 C0 28.81 0 14.62 0 0 Z " fill="#FEFEFE" transform="translate(250,173)"/>
<path d="M0 0 C25 0 25 0 30.28515625 4.59375 C31.81835938 7.46484375 31.81835938 7.46484375 33.0625 10.5 C33.82336914 12.00240234 33.82336914 12.00240234 34.59960938 13.53515625 C35.82944754 15.99483258 36.95017507 18.45957167 38 21 C40.53812035 18.15932226 42.2894801 15.51833021 43.69921875 12.01171875 C45.6875 7.6875 45.6875 7.6875 52 0 C60.25 0 68.5 0 77 0 C77 22.44 77 44.88 77 68 C69.08 68 61.16 68 53 68 C52.67 58.43 52.34 48.86 52 39 C47.71 45.6 43.42 52.2 39 59 C33.375 53.375 33.375 53.375 31.32421875 50.01171875 C30.93065186 49.37451904 30.53708496 48.73731934 30.1315918 48.08081055 C29.6550415 47.29101807 29.17849121 46.50122559 28.6875 45.6875 C27.140625 43.150625 25.59375 40.61375 24 38 C23.67 47.9 23.34 57.8 23 68 C15.41 68 7.82 68 0 68 C0 45.56 0 23.12 0 0 Z " fill="#000000" transform="translate(253,0)"/>
<path d="M0 0 C7.92 0 15.84 0 24 0 C24 7.26 24 14.52 24 22 C30.6 22 37.2 22 44 22 C44 14.74 44 7.48 44 0 C51.59 0 59.18 0 67 0 C67 22.44 67 44.88 67 68 C59.41 68 51.82 68 44 68 C44 60.41 44 52.82 44 45 C37.4 45 30.8 45 24 45 C24 52.59 24 60.18 24 68 C16.08 68 8.16 68 0 68 C0 45.56 0 23.12 0 0 Z " fill="#000000" transform="translate(105,0)"/>
<path d="M0 0 C50.49 0 100.98 0 153 0 C153 12.36259284 153 12.36259284 152.37890625 18.29296875 C152.18325073 20.21774048 152.18325073 20.21774048 151.98364258 22.18139648 C151.88014999 23.16521805 151.88014999 23.16521805 151.77456665 24.16891479 C150.5913121 35.43188391 149.53182021 46.68506648 149 58 C132.44331558 62.84702208 115.84223171 67.25728184 99 71 C99 47.9 99 24.8 99 1 C66.33 1 33.66 1 0 1 C0 0.67 0 0.34 0 0 Z " fill="#F0662B" transform="translate(151,306)"/>
<path d="M0 0 C20.46 0 40.92 0 62 0 C62 14.85 62 29.7 62 45 C42.53 45 23.06 45 3 45 C2.2575 36.646875 2.2575 36.646875 1.5 28.125 C1.34337891 26.38879395 1.18675781 24.65258789 1.02539062 22.86376953 C0.90200022 21.45348053 0.77893291 20.04316322 0.65625 18.6328125 C0.55908691 17.57598267 0.55908691 17.57598267 0.45996094 16.49780273 C-0.01754127 10.93641794 0 5.64017964 0 0 Z " fill="#E44D26" transform="translate(188,217)"/>
<path d="M0 0 C20.79 0 41.58 0 63 0 C63 7.59 63 15.18 63 23 C56.4 23 49.8 23 43 23 C43 37.85 43 52.7 43 68 C35.41 68 27.82 68 20 68 C20 53.15 20 38.3 20 23 C13.4 23 6.8 23 0 23 C0 15.41 0 7.82 0 0 Z " fill="#000000" transform="translate(181,0)"/>
<path d="M0 0 C7.59 0 15.18 0 23 0 C23 14.85 23 29.7 23 45 C33.56 45 44.12 45 55 45 C55 52.59 55 60.18 55 68 C36.85 68 18.7 68 0 68 C0 45.56 0 23.12 0 0 Z " fill="#000000" transform="translate(340,0)"/>
</svg>
