<?xml version="1.0" encoding="UTF-8"?>
<svg version="1.1" xmlns="http://www.w3.org/2000/svg" width="960" height="960">
<path d="M0 0 C316.8 0 633.6 0 960 0 C960 316.8 960 633.6 960 960 C643.2 960 326.4 960 0 960 C0 643.2 0 326.4 0 0 Z " fill="#F6DE1D" transform="translate(0,0)"/>
<path d="M0 0 C0.67805695 -0.00090637 1.35611389 -0.00181274 2.05471802 -0.00274658 C15.72024773 -0.00068377 28.88762056 0.50373396 42.1875 3.8125 C43.26491455 4.07756348 44.3423291 4.34262695 45.45239258 4.61572266 C79.08857003 13.21851802 107.14913166 34.66157034 124.8828125 64.57421875 C126.26774909 67.08965008 127.60601132 69.61204196 128.875 72.1875 C116.80705317 80.35053395 104.54145887 88.19593137 92.2578125 96.02929688 C86.50126156 99.70085723 80.7509883 103.38223576 75 107.0625 C73.93023926 107.74650879 72.86047852 108.43051758 71.75830078 109.13525391 C70.76813965 109.76866699 69.77797852 110.40208008 68.7578125 111.0546875 C67.88527832 111.61269043 67.01274414 112.17069336 66.11376953 112.74560547 C64.3571477 113.87696954 62.61350829 115.02849447 60.875 116.1875 C58.88671875 116.12109375 58.88671875 116.12109375 56.875 115.1875 C55.26953125 113.03515625 55.26953125 113.03515625 53.6875 110.25 C44.69686495 95.42604071 32.99946716 85.34181159 16.1875 80.875 C1.45672316 77.29832011 -12.22189785 78.57306776 -25.5625 86 C-29.95098124 88.85464314 -33.24431733 91.81091387 -36.125 96.1875 C-36.85396484 97.2703125 -36.85396484 97.2703125 -37.59765625 98.375 C-42.97391182 107.95941105 -42.56066029 120.09742348 -40.42578125 130.640625 C-34.812128 147.60001624 -19.95560129 155.66808819 -4.98876953 163.27294922 C6.19436663 168.84538993 17.683686 173.70989246 29.17651367 178.6003418 C61.48734438 192.37671748 93.06226826 206.78861116 118.875 231.1875 C119.77089844 232.00734375 120.66679688 232.8271875 121.58984375 233.671875 C142.23660548 253.24720589 154.01971189 281.4970762 155.00073242 309.81713867 C155.73791135 343.27364259 151.90027503 375.03642282 128.875 401.1875 C128.21113281 401.99445313 127.54726563 402.80140625 126.86328125 403.6328125 C102.27371389 432.6312302 63.32167712 445.22284881 26.62890625 448.7109375 C-26.00441031 452.83136085 -78.87969184 441.78547465 -119.796875 406.91015625 C-122.28409162 404.71259995 -124.71204419 402.46618331 -127.125 400.1875 C-127.92292969 399.45402344 -128.72085938 398.72054688 -129.54296875 397.96484375 C-139.53027035 388.45388404 -147.59372558 377.31369054 -154.4375 365.375 C-154.82881104 364.69937012 -155.22012207 364.02374023 -155.62329102 363.32763672 C-156.54306129 361.65877959 -157.34504701 359.9261014 -158.125 358.1875 C-156.6948329 353.89699871 -153.55475597 352.9898578 -149.75 351 C-141.75529792 346.69208804 -133.92206891 342.15557773 -126.125 337.5 C-112.86608974 329.59799592 -99.51442366 321.86626185 -86.125 314.1875 C-82.93688663 317.28654835 -80.55892 320.39575515 -78.125 324.125 C-62.91009381 346.66798047 -41.81526879 361.64788432 -15.125 367.1875 C3.17244459 370.46089605 24.42342397 369.27848079 40.875 360.1875 C42.18404297 359.506875 42.18404297 359.506875 43.51953125 358.8125 C53.721529 353.18381159 59.3220749 345.46333653 63.125 334.625 C65.58466435 323.26582281 64.4967132 312.087741 58.625 302.05078125 C50.86524714 290.83000225 39.74904041 284.24066755 27.875 278.1875 C27.22080078 277.85347168 26.56660156 277.51944336 25.89257812 277.17529297 C15.20138596 271.79526044 4.18083601 267.14166104 -6.8117981 262.42196655 C-39.00078521 248.59998043 -70.61933131 234.78484716 -96.125 210.1875 C-96.92679688 209.44886719 -97.72859375 208.71023438 -98.5546875 207.94921875 C-113.43493192 193.86704972 -122.82800879 174.75156973 -128.125 155.1875 C-128.30434082 154.53104492 -128.48368164 153.87458984 -128.66845703 153.19824219 C-131.48929263 142.15580531 -131.43140676 130.8251596 -131.5 119.5 C-131.5080365 118.75718781 -131.516073 118.01437561 -131.52435303 117.24905396 C-131.7821895 85.79083405 -119.78975668 58.03111688 -98 35.5625 C-82.58284339 20.31608863 -62.1445313 9.37374139 -41.125 4.1875 C-40.02478516 3.88972656 -40.02478516 3.88972656 -38.90234375 3.5859375 C-36.65245346 3.02241358 -34.40936835 2.5897787 -32.125 2.1875 C-31.14015625 2.001875 -30.1553125 1.81625 -29.140625 1.625 C-19.44842887 0.10133598 -9.78900401 -0.00084513 0 0 Z " fill="#000000" transform="translate(730.125,435.8125)"/>
<path d="M0 0 C29.7 0 59.4 0 90 0 C90.02206694 40.11157861 90.04052284 80.22315147 90.05106533 120.33473441 C90.05231596 125.07585811 90.05361029 129.81698179 90.05493164 134.55810547 C90.05532511 135.97384734 90.05532511 135.97384734 90.05572652 137.41819006 C90.06007167 152.67808525 90.06795285 167.93797665 90.0771528 183.1978696 C90.08652148 198.86895859 90.09206241 214.54004561 90.09408849 230.21113729 C90.09545705 239.87229329 90.0997714 249.53343858 90.10791647 259.19459128 C90.11322361 265.82966262 90.11479531 272.46472847 90.11350138 279.09980178 C90.11286418 282.92144412 90.11380493 286.74306782 90.11920547 290.5647068 C90.17134709 329.44679427 90.17134709 329.44679427 87.25 343 C87.0744458 343.83756836 86.8988916 344.67513672 86.71801758 345.53808594 C80.00702804 376.47031432 65.42239391 404.44268601 38.50390625 422.37109375 C26.63263439 429.97175818 13.89804752 435.15633282 0.3125 438.8125 C-0.4103418 439.0074707 -1.13318359 439.20244141 -1.87792969 439.40332031 C-14.84892388 442.67346425 -27.59680781 443.34793863 -40.90185547 443.31567383 C-43.60035236 443.31252873 -46.29773251 443.33601102 -48.99609375 443.36132812 C-64.57069627 443.41886638 -80.27319262 442.0842775 -95.1875 437.3125 C-96.00371826 437.05758789 -96.81993652 436.80267578 -97.66088867 436.54003906 C-117.69900713 430.03741033 -134.43013544 419.00199009 -150 405 C-150.99580078 404.11248047 -150.99580078 404.11248047 -152.01171875 403.20703125 C-161.42130045 394.32385971 -168.52122149 383.09419152 -175 372 C-175.54140625 371.10539062 -176.0828125 370.21078125 -176.640625 369.2890625 C-177.34445313 368.09410156 -177.34445313 368.09410156 -178.0625 366.875 C-178.46597656 366.19179688 -178.86945313 365.50859375 -179.28515625 364.8046875 C-180 363 -180 363 -179 360 C-177.03588867 358.55224609 -177.03588867 358.55224609 -174.41796875 357.0234375 C-173.43707275 356.44368164 -172.45617676 355.86392578 -171.44555664 355.26660156 C-170.37039795 354.64237305 -169.29523926 354.01814453 -168.1875 353.375 C-166.48737523 352.37206822 -164.7872687 351.36910448 -163.08805847 350.36462402 C-161.89729041 349.66116729 -160.7058806 348.95879588 -159.51387024 348.25744629 C-153.42401561 344.67277046 -147.38241703 341.01032965 -141.3465271 337.33572388 C-139.56949727 336.2542584 -137.79136834 335.17462195 -136.01293945 334.09545898 C-130.76407068 330.90891593 -125.52245648 327.71143248 -120.30078125 324.48046875 C-119.03609009 323.69978027 -119.03609009 323.69978027 -117.74584961 322.90332031 C-116.21166886 321.95478553 -114.67976722 321.00255028 -113.15063477 320.04589844 C-108.22178451 317 -108.22178451 317 -106 317 C-105.30777344 318.27230469 -105.30777344 318.27230469 -104.6015625 319.5703125 C-95.22159293 336.54510253 -85.06876601 353.20705633 -65.93359375 360.10546875 C-49.72584468 364.42618283 -31.89197675 362.98866912 -17.09765625 354.96875 C-12.67575868 351.84033267 -10.24653365 347.3921095 -7.75 342.6875 C-7.4204834 342.09098633 -7.0909668 341.49447266 -6.75146484 340.87988281 C1.13603825 324.92735738 -0.54973589 305.49236813 -0.56726015 288.22675669 C-0.56789055 284.34900396 -0.55120335 280.47131791 -0.53674316 276.59359741 C-0.51407325 269.89422022 -0.50209226 263.19489462 -0.49761391 256.49548149 C-0.49112334 246.80956848 -0.46813531 237.12374828 -0.44127061 227.43787289 C-0.39811346 211.71876757 -0.36808368 195.99966617 -0.34643555 180.28051758 C-0.32539254 165.02138335 -0.29808859 149.76228125 -0.26245117 134.50317383 C-0.26025235 133.56076253 -0.25805352 132.61835123 -0.25578807 131.64738201 C-0.24471759 126.91903197 -0.23352493 122.19068222 -0.22227156 117.46233261 C-0.1292434 78.30824119 -0.06001425 39.15415867 0 0 Z " fill="#000000" transform="translate(433,441)"/>
</svg>
